<svg width="26.0in" height="20.0in" viewBox="0 0 660.4 508.0">
  <g xmlns:ns0="http://www.inkscape.org/namespaces/inkscape" ns0:label="border" ns0:groupmode="layer">
    <ns1:path xmlns:ns1="http://www.w3.org/2000/svg" style="stroke:#000000;stroke-width:1.3229166666404566;fill:#ffffff" d="M38.099999999999994,0 a 38.099999999999994,38.099999999999994 0 0 0 -38.099999999999994,38.099999999999994 l 0,381.0 a 38.099999999999994,38.099999999999994 0 0 0 38.099999999999994,38.099999999999994 l 533.3999999999999,0 a 38.099999999999994,38.099999999999994 0 0 0 38.099999999999994-38.099999999999994 l 0,-381.0 a 38.099999999999994,38.099999999999994 0 0 0 -38.099999999999994-38.099999999999994 l -533.3999999999999,0 z" ns0:label="border_outside" transform="matrix(1.000000,0.000000,0.000000,1.000000,25.400000,25.400000)"/>
    <ns2:path xmlns:ns2="http://www.w3.org/2000/svg" style="stroke:#231f20;stroke-width:1.3229166666404566;fill:#231f20" d="M38.099999999999994,9.524999999999999 a 28.574999999999996,28.574999999999996 0 0 0 -28.574999999999996,28.574999999999996 l 0,381.0 a 28.574999999999996,28.574999999999996 0 0 0 28.574999999999996,28.574999999999996 l 533.4,0 a 28.574999999999996,28.574999999999996 0 0 0 28.574999999999996-28.574999999999996 l 0,-381.0 a 28.574999999999996,28.574999999999996 0 0 0 -28.574999999999996-28.574999999999996 l -533.4,0 z M38.099999999999994,25.4 l 533.4,0 a 12.699999999999996,12.699999999999996 0 0 1 12.699999999999996,12.699999999999996 l 0,381.0 a 12.699999999999996,12.699999999999996 0 0 1 -12.699999999999996,12.699999999999996 l -533.4,0 a 12.699999999999996,12.699999999999996 0 0 1 -12.699999999999996,-12.699999999999996 l 0,-381.0 a 12.699999999999996,12.699999999999996 0 0 1 12.699999999999996,-12.699999999999996 z" ns0:label="border" transform="matrix(1.000000,0.000000,0.000000,1.000000,25.400000,25.400000)"/>
  </g>
  <g xmlns:ns3="http://www.inkscape.org/namespaces/inkscape" ns3:label="messages" ns3:groupmode="layer">
    <g ns3:label="EXCEPT" fill="#231f20"><path xmlns="http://www.w3.org/2000/svg" id="D69" d="m 250.44735,158.16375 v -8.24618 h -23.65816 v -13.97331 h 14.8773 v -8.24619 h -14.8773 v -12.54566 h 22.0431 v -8.06427 h -30.10738 v 51.07561 z m 0,0" style="fill:#1c1714;fill-opacity:1;stroke:none;stroke-width:0.35277775" ns3:connector-curvature="0" transform="matrix(1.489893,0.000000,0.000000,1.489893,-171.051008,-70.598467)"/>
    <path xmlns="http://www.w3.org/2000/svg" id="D88" d="m 1167.2454,158.16375 -12.8985,-26.34258 12.0055,-24.73303 h -9.1391 l -7.3478,15.23559 -7.3476,-15.23559 h -9.1392 l 11.8291,24.73303 -12.7276,26.34258 h 9.1392 l 8.2461,-17.02705 8.2407,17.02705 z m 0,0" style="fill:#1c1714;fill-opacity:1;stroke:none;stroke-width:0.35277775" ns3:connector-curvature="0" transform="matrix(1.492100,0.000000,0.000000,1.492100,-1480.064959,-70.891173)"/>
    <path xmlns="http://www.w3.org/2000/svg" id="D67" d="m 155.62651,147.76783 -7.70599,-2.86632 c -1.97335,4.12309 -4.48138,5.91454 -7.88789,5.91454 -3.5829,0 -5.91454,-1.25677 -7.70599,-3.94119 -1.97335,-3.22461 -3.22461,-8.78086 -3.22461,-14.33711 0,-4.30499 0.71658,-8.78086 1.97335,-11.82908 1.79145,-4.48138 4.47587,-6.27283 8.59896,-6.27283 3.94119,0 5.55625,1.07487 8.42257,5.37435 l 7.5296,-3.22461 c -3.40651,-7.16579 -8.24619,-10.39041 -15.95217,-10.39041 -5.73264,0 -10.03763,1.96784 -13.08034,5.73264 -3.58841,4.48138 -5.73815,12.54566 -5.73815,20.60994 0,6.44922 1.43316,12.90395 3.7648,17.37982 3.22461,6.27283 8.06428,9.14466 15.59388,9.14466 7.3477,0 12.36376,-3.7648 15.41198,-11.2944 z m 0,0" style="fill:#1c1714;fill-opacity:1;stroke:none;stroke-width:0.35277775" ns3:connector-curvature="0" transform="matrix(1.491866,0.000000,0.000000,1.491866,92.711159,-70.864248)"/>
    <path xmlns="http://www.w3.org/2000/svg" id="D691" d="m 250.44735,158.16375 v -8.24618 h -23.65816 v -13.97331 h 14.8773 v -8.24619 h -14.8773 v -12.54566 h 22.0431 v -8.06427 h -30.10738 v 51.07561 z m 0,0" style="fill:#1c1714;fill-opacity:1;stroke:none;stroke-width:0.35277775" ns3:connector-curvature="0" transform="matrix(1.489893,0.000000,0.000000,1.489893,15.772342,-70.598467)"/>
    <path xmlns="http://www.w3.org/2000/svg" id="D80" d="m 781.86849,121.42525 c 0,-5.19796 -3.40651,-10.57231 -7.88789,-12.72205 -2.50803,-1.25677 -5.19796,-1.61506 -9.31554,-1.61506 h -17.56723 v 51.07561 h 8.06428 v -22.21949 h 9.50295 c 3.94119,0 6.98941,-0.72209 9.31554,-1.79697 4.48138,-1.96783 7.88789,-7.34769 7.88789,-12.72204 z m -8.24618,0 c 0,2.14973 -1.25126,4.48138 -3.04822,5.37435 -1.43316,0.71658 -2.32613,0.89847 -4.83416,0.89847 h -10.57782 v -12.54565 h 10.57782 c 2.50803,0 3.401,0.1819 4.83416,0.89848 1.79696,1.07487 3.04822,3.22461 3.04822,5.37435 z m 0,0" style="fill:#1c1714;fill-opacity:1;stroke:none;stroke-width:0.35277775" ns3:connector-curvature="0" transform="matrix(1.491866,0.000000,0.000000,1.491866,-712.703759,-70.860138)"/>
    <path xmlns="http://www.w3.org/2000/svg" id="D84" d="m 972.94263,114.25945 v -7.1713 h -31.53921 v 7.1713 h 11.64705 v 43.9043 h 8.06375 v -43.9043 z m 0,0" style="fill:#1c1714;fill-opacity:1;stroke:none;stroke-width:0.35277775" ns3:connector-curvature="0" transform="matrix(1.498549,0.000000,0.000000,1.498549,-952.427904,-71.746485)"/>
    </g>
    <g ns3:label="RIGHT" fill="#231f20"><path xmlns="http://www.w3.org/2000/svg" id="D82" d="m 878.21338,158.16375 -8.96277,-23.83455 c 4.65777,-2.14974 7.8879,-7.5296 7.8879,-12.90394 0,-5.19796 -3.23013,-10.57231 -7.70599,-12.72205 -2.51354,-1.25677 -5.19796,-1.61506 -9.13915,-1.61506 h -16.85065 v 51.0756 h 8.06428 v -22.21949 h 9.67934 l 8.24618,22.21949 z m -9.13915,-36.73849 c 0,2.14973 -1.25678,4.29947 -3.23013,5.37434 -1.25125,0.71658 -2.14974,0.89848 -4.65776,0.89848 H 851.507 v -12.54566 h 9.67934 c 2.68993,0 3.40651,0.18191 4.65776,0.89849 1.97335,1.07487 3.23013,3.22461 3.23013,5.37435 z m 0,0" style="fill:#1c1714;fill-opacity:1;stroke:none;stroke-width:0.35277775" ns3:connector-curvature="0" transform="matrix(1.491866,0.000000,0.000000,1.491866,-1064.596775,56.139854)"/>
    <path xmlns="http://www.w3.org/2000/svg" id="D73" d="m 431.39902,158.16375 v -51.07561 h -8.24618 v 51.07561 z m 0,0" style="fill:#1c1714;fill-opacity:1;stroke:none;stroke-width:0.35277775" ns3:connector-curvature="0" transform="matrix(1.478503,0.000000,0.000000,1.478503,-367.098844,57.912142)"/>
    <path xmlns="http://www.w3.org/2000/svg" id="D71" d="m 348.31635,142.92816 v -10.21402 h -17.38533 v 8.06428 h 9.32105 v 2.14974 c 0,4.66328 -3.7648,7.88789 -8.96276,7.88789 -3.04822,0 -5.37435,-1.25677 -6.98941,-4.12309 -1.61506,-3.22461 -2.50803,-8.59896 -2.50803,-13.97882 0,-4.29948 0.71658,-8.95725 1.97335,-12.00548 1.79145,-4.48137 4.47587,-6.27283 8.59896,-6.27283 3.94118,0 6.09644,1.61507 8.24618,6.09094 l 7.70599,-3.04271 c -3.40651,-8.06428 -8.06428,-11.28889 -15.95217,-11.28889 -5.73264,0 -10.03763,1.96784 -13.08034,5.73264 -3.40651,4.48137 -5.73815,12.54566 -5.73815,20.78633 0,6.27283 1.25677,12.54566 3.40651,17.02704 3.04822,6.44922 7.5296,9.32105 15.23559,9.32105 9.31554,0 16.12856,-6.81302 16.12856,-16.13407 z m 0,0" style="fill:#1c1714;fill-opacity:1;stroke:none;stroke-width:0.35277775" ns3:connector-curvature="0" transform="matrix(1.491866,0.000000,0.000000,1.491866,-180.278262,56.135752)"/>
    <path xmlns="http://www.w3.org/2000/svg" id="D72" d="m 396.48883,158.16375 v -51.07561 h -8.06428 v 20.60994 h -18.6421 v -20.60994 h -8.06428 v 51.07561 h 8.06428 v -22.21949 h 18.6421 v 22.21949 z m 0,0" style="fill:#1c1714;fill-opacity:1;stroke:none;stroke-width:0.35277775" ns3:connector-curvature="0" transform="matrix(1.491866,0.000000,0.000000,1.491866,-183.507997,56.139862)"/>
    <path xmlns="http://www.w3.org/2000/svg" id="D84s" d="m 972.94263,114.25945 v -7.1713 h -31.53921 v 7.1713 h 11.64705 v 43.9043 h 8.06375 v -43.9043 z m 0,0" style="fill:#1c1714;fill-opacity:1;stroke:none;stroke-width:0.35277775" ns3:connector-curvature="0" transform="matrix(1.498549,0.000000,0.000000,1.498549,-991.308954,55.253515)"/>
    </g>
    <g ns3:label="TURN" fill="#231f20"><path xmlns="http://www.w3.org/2000/svg" id="D84F" d="m 972.94263,114.25945 v -7.1713 h -31.53921 v 7.1713 h 11.64705 v 43.9043 h 8.06375 v -43.9043 z m 0,0" style="fill:#1c1714;fill-opacity:1;stroke:none;stroke-width:0.35277775" ns3:connector-curvature="0" transform="matrix(1.498549,0.000000,0.000000,1.498549,-1203.316404,182.253515)"/>
    <path xmlns="http://www.w3.org/2000/svg" id="D85" d="m 1022.7299,139.88545 v -32.7973 h -8.0639 v 32.7973 c 0,6.63112 -3.7645,10.9306 -9.3205,10.9306 -5.55594,0 -9.32054,-4.29948 -9.32054,-10.9306 v -32.7973 h -8.06385 v 32.7973 c 0,3.94119 0.89847,7.52409 2.33148,10.57231 2.68985,5.01606 8.78037,8.60447 15.05291,8.60447 6.2724,0 12.3631,-3.58841 15.0528,-8.60447 1.4331,-3.04822 2.3316,-6.63112 2.3316,-10.57231 z m 0,0" style="fill:#1c1714;fill-opacity:1;stroke:none;stroke-width:0.35277775" ns3:connector-curvature="0" transform="matrix(1.491946,0.000000,0.000000,1.491946,-1207.868830,182.459003)"/>
    <path xmlns="http://www.w3.org/2000/svg" id="D828" d="m 878.21338,158.16375 -8.96277,-23.83455 c 4.65777,-2.14974 7.8879,-7.5296 7.8879,-12.90394 0,-5.19796 -3.23013,-10.57231 -7.70599,-12.72205 -2.51354,-1.25677 -5.19796,-1.61506 -9.13915,-1.61506 h -16.85065 v 51.0756 h 8.06428 v -22.21949 h 9.67934 l 8.24618,22.21949 z m -9.13915,-36.73849 c 0,2.14973 -1.25678,4.29947 -3.23013,5.37434 -1.25125,0.71658 -2.14974,0.89848 -4.65776,0.89848 H 851.507 v -12.54566 h 9.67934 c 2.68993,0 3.40651,0.18191 4.65776,0.89849 1.97335,1.07487 3.23013,3.22461 3.23013,5.37435 z m 0,0" style="fill:#1c1714;fill-opacity:1;stroke:none;stroke-width:0.35277775" ns3:connector-curvature="0" transform="matrix(1.491866,0.000000,0.000000,1.491866,-922.026575,183.139854)"/>
    <path xmlns="http://www.w3.org/2000/svg" id="D78" d="m 685.52356,158.16375 v -51.0756 h -8.06428 v 32.6154 l -18.64211,-32.6154 h -8.06428 v 51.0756 h 8.06428 v -34.58876 l 19.53508,34.58876 z m 0,0" style="fill:#1c1714;fill-opacity:1;stroke:none;stroke-width:0.35277775" ns3:connector-curvature="0" transform="matrix(1.491865,0.000000,0.000000,1.491865,-569.731358,183.139987)"/>
    </g>
  </g>
</svg>
