<svg width="26.0in" height="20.0in" viewBox="0 0 660.4 508.0">
  <g xmlns:ns0="http://www.inkscape.org/namespaces/inkscape" ns0:label="border" ns0:groupmode="layer">
    <ns1:path xmlns:ns1="http://www.w3.org/2000/svg" style="stroke:#000000;stroke-width:1.3229166666404566;fill:#ffffff" d="M38.099999999999994,0 a 38.099999999999994,38.099999999999994 0 0 0 -38.099999999999994,38.099999999999994 l 0,381.0 a 38.099999999999994,38.099999999999994 0 0 0 38.099999999999994,38.099999999999994 l 533.3999999999999,0 a 38.099999999999994,38.099999999999994 0 0 0 38.099999999999994-38.099999999999994 l 0,-381.0 a 38.099999999999994,38.099999999999994 0 0 0 -38.099999999999994-38.099999999999994 l -533.3999999999999,0 z" ns0:label="border_outside" transform="matrix(1.000000,0.000000,0.000000,1.000000,25.400000,25.400000)"/>
    <ns2:path xmlns:ns2="http://www.w3.org/2000/svg" style="stroke:#231f20;stroke-width:1.3229166666404566;fill:#231f20" d="M38.099999999999994,9.524999999999999 a 28.574999999999996,28.574999999999996 0 0 0 -28.574999999999996,28.574999999999996 l 0,381.0 a 28.574999999999996,28.574999999999996 0 0 0 28.574999999999996,28.574999999999996 l 533.4,0 a 28.574999999999996,28.574999999999996 0 0 0 28.574999999999996-28.574999999999996 l 0,-381.0 a 28.574999999999996,28.574999999999996 0 0 0 -28.574999999999996-28.574999999999996 l -533.4,0 z M38.099999999999994,25.4 l 533.4,0 a 12.699999999999996,12.699999999999996 0 0 1 12.699999999999996,12.699999999999996 l 0,381.0 a 12.699999999999996,12.699999999999996 0 0 1 -12.699999999999996,12.699999999999996 l -533.4,0 a 12.699999999999996,12.699999999999996 0 0 1 -12.699999999999996,-12.699999999999996 l 0,-381.0 a 12.699999999999996,12.699999999999996 0 0 1 12.699999999999996,-12.699999999999996 z" ns0:label="border" transform="matrix(1.000000,0.000000,0.000000,1.000000,25.400000,25.400000)"/>
  </g>
  <g xmlns:ns3="http://www.inkscape.org/namespaces/inkscape" ns3:label="messages" ns3:groupmode="layer">
    <g ns3:label="TO" fill="#231f20"><path xmlns="http://www.w3.org/2000/svg" id="D84" d="m 972.94263,114.25945 v -7.1713 h -31.53921 v 7.1713 h 11.64705 v 43.9043 h 8.06375 v -43.9043 z m 0,0" style="fill:#1c1714;fill-opacity:1;stroke:none;stroke-width:0.35277775" ns3:connector-curvature="0" transform="matrix(1.498549,0.000000,0.000000,1.498549,-1136.193729,-71.746485)"/>
    <path xmlns="http://www.w3.org/2000/svg" id="D79" d="m 734.41263,132.71413 c 0,-6.44921 -1.25677,-12.90394 -3.40651,-17.37981 -3.22461,-6.27283 -7.70599,-9.13915 -14.1552,-9.13915 -5.91455,0 -10.03764,1.79145 -13.08586,5.73264 -3.40651,4.83967 -5.55624,12.36375 -5.55624,20.78632 0,6.09645 1.43315,12.90396 3.5884,17.20344 3.04271,6.27283 7.5241,9.14466 14.6954,9.14466 5.37435,0 9.49745,-1.79696 12.36376,-5.73815 3.5829,-4.48138 5.55625,-12.54566 5.55625,-20.60995 z m -8.06428,0 c 0,3.94671 -0.89848,8.96277 -1.97335,11.6527 -1.79145,4.47587 -4.12309,6.44922 -7.88238,6.44922 -3.23012,0 -5.37986,-1.25677 -6.98941,-3.94119 -1.97335,-3.22461 -3.04821,-8.78086 -3.04821,-14.16073 0,-4.29947 0.71658,-8.95724 1.97335,-12.00546 1.79144,-4.48138 4.29948,-6.44922 8.24066,-6.27283 3.04823,0.1819 5.01606,1.25677 6.63112,3.94119 1.97335,3.40651 3.04822,8.60447 3.04822,14.3371 z m 0,0" style="fill:#1c1714;fill-opacity:1;stroke:none;stroke-width:0.35277775" ns3:connector-curvature="0" transform="matrix(1.495425,0.000000,0.000000,1.495425,-712.404441,-71.336274)"/>
    </g>
    <g ns3:label="ONCOMING" fill="#231f20"><path xmlns="http://www.w3.org/2000/svg" id="D79u" d="m 734.41263,132.71413 c 0,-6.44921 -1.25677,-12.90394 -3.40651,-17.37981 -3.22461,-6.27283 -7.70599,-9.13915 -14.1552,-9.13915 -5.91455,0 -10.03764,1.79145 -13.08586,5.73264 -3.40651,4.83967 -5.55624,12.36375 -5.55624,20.78632 0,6.09645 1.43315,12.90396 3.5884,17.20344 3.04271,6.27283 7.5241,9.14466 14.6954,9.14466 5.37435,0 9.49745,-1.79696 12.36376,-5.73815 3.5829,-4.48138 5.55625,-12.54566 5.55625,-20.60995 z m -8.06428,0 c 0,3.94671 -0.89848,8.96277 -1.97335,11.6527 -1.79145,4.47587 -4.12309,6.44922 -7.88238,6.44922 -3.23012,0 -5.37986,-1.25677 -6.98941,-3.94119 -1.97335,-3.22461 -3.04821,-8.78086 -3.04821,-14.16073 0,-4.29947 0.71658,-8.95724 1.97335,-12.00546 1.79144,-4.48138 4.29948,-6.44922 8.24066,-6.27283 3.04823,0.1819 5.01606,1.25677 6.63112,3.94119 1.97335,3.40651 3.04822,8.60447 3.04822,14.3371 z m 0,0" style="fill:#1c1714;fill-opacity:1;stroke:none;stroke-width:0.35277775" ns3:connector-curvature="0" transform="matrix(1.495425,0.000000,0.000000,1.495425,-967.074366,55.663726)"/>
    <path xmlns="http://www.w3.org/2000/svg" id="D78" d="m 685.52356,158.16375 v -51.0756 h -8.06428 v 32.6154 l -18.64211,-32.6154 h -8.06428 v 51.0756 h 8.06428 v -34.58876 l 19.53508,34.58876 z m 0,0" style="fill:#1c1714;fill-opacity:1;stroke:none;stroke-width:0.35277775" ns3:connector-curvature="0" transform="matrix(1.491865,0.000000,0.000000,1.491865,-822.886808,56.139987)"/>
    <path xmlns="http://www.w3.org/2000/svg" id="D67" d="m 155.62651,147.76783 -7.70599,-2.86632 c -1.97335,4.12309 -4.48138,5.91454 -7.88789,5.91454 -3.5829,0 -5.91454,-1.25677 -7.70599,-3.94119 -1.97335,-3.22461 -3.22461,-8.78086 -3.22461,-14.33711 0,-4.30499 0.71658,-8.78086 1.97335,-11.82908 1.79145,-4.48138 4.47587,-6.27283 8.59896,-6.27283 3.94119,0 5.55625,1.07487 8.42257,5.37435 l 7.5296,-3.22461 c -3.40651,-7.16579 -8.24619,-10.39041 -15.95217,-10.39041 -5.73264,0 -10.03763,1.96784 -13.08034,5.73264 -3.58841,4.48138 -5.73815,12.54566 -5.73815,20.60994 0,6.44922 1.43316,12.90395 3.7648,17.37982 3.22461,6.27283 8.06428,9.14466 15.59388,9.14466 7.3477,0 12.36376,-3.7648 15.41198,-11.2944 z m 0,0" style="fill:#1c1714;fill-opacity:1;stroke:none;stroke-width:0.35277775" ns3:connector-curvature="0" transform="matrix(1.491866,0.000000,0.000000,1.491866,36.285059,56.135752)"/>
    <path xmlns="http://www.w3.org/2000/svg" id="D79E" d="m 734.41263,132.71413 c 0,-6.44921 -1.25677,-12.90394 -3.40651,-17.37981 -3.22461,-6.27283 -7.70599,-9.13915 -14.1552,-9.13915 -5.91455,0 -10.03764,1.79145 -13.08586,5.73264 -3.40651,4.83967 -5.55624,12.36375 -5.55624,20.78632 0,6.09645 1.43315,12.90396 3.5884,17.20344 3.04271,6.27283 7.5241,9.14466 14.6954,9.14466 5.37435,0 9.49745,-1.79696 12.36376,-5.73815 3.5829,-4.48138 5.55625,-12.54566 5.55625,-20.60995 z m -8.06428,0 c 0,3.94671 -0.89848,8.96277 -1.97335,11.6527 -1.79145,4.47587 -4.12309,6.44922 -7.88238,6.44922 -3.23012,0 -5.37986,-1.25677 -6.98941,-3.94119 -1.97335,-3.22461 -3.04821,-8.78086 -3.04821,-14.16073 0,-4.29947 0.71658,-8.95724 1.97335,-12.00546 1.79144,-4.48138 4.29948,-6.44922 8.24066,-6.27283 3.04823,0.1819 5.01606,1.25677 6.63112,3.94119 1.97335,3.40651 3.04822,8.60447 3.04822,14.3371 z m 0,0" style="fill:#1c1714;fill-opacity:1;stroke:none;stroke-width:0.35277775" ns3:connector-curvature="0" transform="matrix(1.495425,0.000000,0.000000,1.495425,-760.419966,55.663726)"/>
    <path xmlns="http://www.w3.org/2000/svg" id="D77" d="m 639.85914,158.16375 v -51.0756 h -8.06427 l -11.82908,28.67421 -11.82908,-28.67421 h -8.06428 v 51.0756 h 8.06428 v -29.56718 l 11.82908,29.56718 11.82908,-29.56718 v 29.56718 z m 0,0" style="fill:#1c1714;fill-opacity:1;stroke:none;stroke-width:0.35277775" ns3:connector-curvature="0" transform="matrix(1.494823,0.000000,0.000000,1.494823,-542.399015,55.747680)"/>
    <path xmlns="http://www.w3.org/2000/svg" id="D73" d="m 431.39902,158.16375 v -51.07561 h -8.24618 v 51.07561 z m 0,0" style="fill:#1c1714;fill-opacity:1;stroke:none;stroke-width:0.35277775" ns3:connector-curvature="0" transform="matrix(1.478503,0.000000,0.000000,1.478503,-193.267594,57.912142)"/>
    <path xmlns="http://www.w3.org/2000/svg" id="D78Y" d="m 685.52356,158.16375 v -51.0756 h -8.06428 v 32.6154 l -18.64211,-32.6154 h -8.06428 v 51.0756 h 8.06428 v -34.58876 l 19.53508,34.58876 z m 0,0" style="fill:#1c1714;fill-opacity:1;stroke:none;stroke-width:0.35277775" ns3:connector-curvature="0" transform="matrix(1.491865,0.000000,0.000000,1.491865,-507.990308,56.139987)"/>
    <path xmlns="http://www.w3.org/2000/svg" id="D71" d="m 348.31635,142.92816 v -10.21402 h -17.38533 v 8.06428 h 9.32105 v 2.14974 c 0,4.66328 -3.7648,7.88789 -8.96276,7.88789 -3.04822,0 -5.37435,-1.25677 -6.98941,-4.12309 -1.61506,-3.22461 -2.50803,-8.59896 -2.50803,-13.97882 0,-4.29948 0.71658,-8.95725 1.97335,-12.00548 1.79145,-4.48137 4.47587,-6.27283 8.59896,-6.27283 3.94118,0 6.09644,1.61507 8.24618,6.09094 l 7.70599,-3.04271 c -3.40651,-8.06428 -8.06428,-11.28889 -15.95217,-11.28889 -5.73264,0 -10.03763,1.96784 -13.08034,5.73264 -3.40651,4.48137 -5.73815,12.54566 -5.73815,20.78633 0,6.27283 1.25677,12.54566 3.40651,17.02704 3.04822,6.44922 7.5296,9.32105 15.23559,9.32105 9.31554,0 16.12856,-6.81302 16.12856,-16.13407 z m 0,0" style="fill:#1c1714;fill-opacity:1;stroke:none;stroke-width:0.35277775" ns3:connector-curvature="0" transform="matrix(1.491866,0.000000,0.000000,1.491866,63.714138,56.135752)"/>
    </g>
    <g ns3:label="TRAFFIC" fill="#231f20"><path xmlns="http://www.w3.org/2000/svg" id="D84d" d="m 972.94263,114.25945 v -7.1713 h -31.53921 v 7.1713 h 11.64705 v 43.9043 h 8.06375 v -43.9043 z m 0,0" style="fill:#1c1714;fill-opacity:1;stroke:none;stroke-width:0.35277775" ns3:connector-curvature="0" transform="matrix(1.498549,0.000000,0.000000,1.498549,-1276.096929,182.253515)"/>
    <path xmlns="http://www.w3.org/2000/svg" id="D82" d="m 878.21338,158.16375 -8.96277,-23.83455 c 4.65777,-2.14974 7.8879,-7.5296 7.8879,-12.90394 0,-5.19796 -3.23013,-10.57231 -7.70599,-12.72205 -2.51354,-1.25677 -5.19796,-1.61506 -9.13915,-1.61506 h -16.85065 v 51.0756 h 8.06428 v -22.21949 h 9.67934 l 8.24618,22.21949 z m -9.13915,-36.73849 c 0,2.14973 -1.25678,4.29947 -3.23013,5.37434 -1.25125,0.71658 -2.14974,0.89848 -4.65776,0.89848 H 851.507 v -12.54566 h 9.67934 c 2.68993,0 3.40651,0.18191 4.65776,0.89849 1.97335,1.07487 3.23013,3.22461 3.23013,5.37435 z m 0,0" style="fill:#1c1714;fill-opacity:1;stroke:none;stroke-width:0.35277775" ns3:connector-curvature="0" transform="matrix(1.491866,0.000000,0.000000,1.491866,-1064.968250,183.139854)"/>
    <path xmlns="http://www.w3.org/2000/svg" id="D65" d="m 63.490123,158.16375 -17.56172,-51.07561 h -8.06428 l -17.56172,51.07561 h 8.59896 l 5.02157,-14.33711 h 15.94666 l 5.01606,14.33711 z m -16.48685,-22.58329 h -10.21402 l 5.19796,-14.3316 z m 0,0" style="fill:#1c1714;fill-opacity:1;stroke:none;stroke-width:0.35277775" ns3:connector-curvature="0" transform="matrix(1.500614,0.000000,0.000000,1.500614,220.838356,181.979650)"/>
    <path xmlns="http://www.w3.org/2000/svg" id="D70" d="m 298.6198,115.15241 v -8.06427 h -31.72244 v 51.07561 h 8.06428 v -22.21949 h 14.8773 v -8.24619 h -14.8773 v -12.54566 z m 0,0" style="fill:#1c1714;fill-opacity:1;stroke:none;stroke-width:0.35277775" ns3:connector-curvature="0" transform="matrix(1.489893,0.000000,0.000000,1.489893,-70.105979,183.401533)"/>
    <path xmlns="http://www.w3.org/2000/svg" id="D704" d="m 298.6198,115.15241 v -8.06427 h -31.72244 v 51.07561 h 8.06428 v -22.21949 h 14.8773 v -8.24619 h -14.8773 v -12.54566 z m 0,0" style="fill:#1c1714;fill-opacity:1;stroke:none;stroke-width:0.35277775" ns3:connector-curvature="0" transform="matrix(1.489893,0.000000,0.000000,1.489893,-11.412929,183.401533)"/>
    <path xmlns="http://www.w3.org/2000/svg" id="D73d" d="m 431.39902,158.16375 v -51.07561 h -8.24618 v 51.07561 z m 0,0" style="fill:#1c1714;fill-opacity:1;stroke:none;stroke-width:0.35277775" ns3:connector-curvature="0" transform="matrix(1.478503,0.000000,0.000000,1.478503,-180.704119,184.912142)"/>
    <path xmlns="http://www.w3.org/2000/svg" id="D67H" d="m 155.62651,147.76783 -7.70599,-2.86632 c -1.97335,4.12309 -4.48138,5.91454 -7.88789,5.91454 -3.5829,0 -5.91454,-1.25677 -7.70599,-3.94119 -1.97335,-3.22461 -3.22461,-8.78086 -3.22461,-14.33711 0,-4.30499 0.71658,-8.78086 1.97335,-11.82908 1.79145,-4.48138 4.47587,-6.27283 8.59896,-6.27283 3.94119,0 5.55625,1.07487 8.42257,5.37435 l 7.5296,-3.22461 c -3.40651,-7.16579 -8.24619,-10.39041 -15.95217,-10.39041 -5.73264,0 -10.03763,1.96784 -13.08034,5.73264 -3.58841,4.48138 -5.73815,12.54566 -5.73815,20.60994 0,6.44922 1.43316,12.90395 3.7648,17.37982 3.22461,6.27283 8.06428,9.14466 15.59388,9.14466 7.3477,0 12.36376,-3.7648 15.41198,-11.2944 z m 0,0" style="fill:#1c1714;fill-opacity:1;stroke:none;stroke-width:0.35277775" ns3:connector-curvature="0" transform="matrix(1.491866,0.000000,0.000000,1.491866,293.583884,183.135752)"/>
    </g>
  </g>
</svg>
