<svg width="20.0in" height="8.0in" viewBox="0 0 508.0 203.2">
  <g xmlns:ns0="http://www.inkscape.org/namespaces/inkscape" ns0:label="border" ns0:groupmode="layer">
    <ns1:path xmlns:ns1="http://www.w3.org/2000/svg" style="stroke:#bf2e1a;stroke-width:1.3229166666404566;fill:#bf2e1a" d="M38.099999999999994,0 a 38.099999999999994,38.099999999999994 0 0 0 -38.099999999999994,38.099999999999994 l 0,76.19999999999999 a 38.099999999999994,38.099999999999994 0 0 0 38.099999999999994,38.099999999999994 l 381.0,0 a 38.099999999999994,38.099999999999994 0 0 0 38.099999999999994-38.099999999999994 l 0,-76.19999999999999 a 38.099999999999994,38.099999999999994 0 0 0 -38.099999999999994-38.099999999999994 l -381.0,0 z" ns0:label="border_outside" transform="matrix(1.000000,0.000000,0.000000,1.000000,25.400000,25.400000)"/>
    <ns2:path xmlns:ns2="http://www.w3.org/2000/svg" style="stroke:#ffffff;stroke-width:1.3229166666404566;fill:#ffffff" d="M38.099999999999994,0.0 a 38.099999999999994,38.099999999999994 0 0 0 -38.099999999999994,38.099999999999994 l 0,76.19999999999999 a 38.099999999999994,38.099999999999994 0 0 0 38.099999999999994,38.099999999999994 l 381.0,0 a 38.099999999999994,38.099999999999994 0 0 0 38.099999999999994-38.099999999999994 l 0,-76.19999999999999 a 38.099999999999994,38.099999999999994 0 0 0 -38.099999999999994-38.099999999999994 l -381.0,0 z M38.099999999999994,12.7 l 381.0,0 a 25.399999999999995,25.399999999999995 0 0 1 25.399999999999995,25.399999999999995 l 0,76.19999999999999 a 25.399999999999995,25.399999999999995 0 0 1 -25.399999999999995,25.399999999999995 l -381.0,0 a 25.399999999999995,25.399999999999995 0 0 1 -25.399999999999995,-25.399999999999995 l 0,-76.19999999999999 a 25.399999999999995,25.399999999999995 0 0 1 25.399999999999995,-25.399999999999995 z" ns0:label="border" transform="matrix(1.000000,0.000000,0.000000,1.000000,25.400000,25.400000)"/>
  </g>
  <g xmlns:ns3="http://www.inkscape.org/namespaces/inkscape" ns3:label="messages" ns3:groupmode="layer">
    <g ns3:label="ALL WAY" fill="#ffffff"><path xmlns="http://www.w3.org/2000/svg" id="C65" d="M 42.05393,259.7658 29.326367,208.69019 H 22.160568 L 9.4385239,259.7658 h 7.3476971 l 3.400996,-13.97882 h 10.936111 l 3.5829,13.97882 z M 29.326367,238.62118 h -7.347698 l 3.58841,-14.6954 z m 0,0" style="fill:#1c1714;fill-opacity:1;stroke:none;stroke-width:0.35277775" ns3:connector-curvature="0" transform="matrix(1.495828,0.000000,0.000000,1.495828,62.173673,-248.764793)"/>
    <path xmlns="http://www.w3.org/2000/svg" id="C76" d="m 537.93525,259.7658 v -6.80751 h -18.63659 v -44.2681 h -7.3477 v 51.07561 z m 0,0" style="fill:#1c1714;fill-opacity:1;stroke:none;stroke-width:0.35277775" ns3:connector-curvature="0" transform="matrix(1.496329,0.000000,0.000000,1.496329,-630.299941,-248.882142)"/>
    <path xmlns="http://www.w3.org/2000/svg" id="C767" d="m 537.93525,259.7658 v -6.80751 h -18.63659 v -44.2681 h -7.3477 v 51.07561 z m 0,0" style="fill:#1c1714;fill-opacity:1;stroke:none;stroke-width:0.35277775" ns3:connector-curvature="0" transform="matrix(1.496329,0.000000,0.000000,1.496329,-580.750891,-248.882142)"/>
    <path xmlns="http://www.w3.org/2000/svg" id="C87" d="m 1043.493,208.69019 h -7.1658 l -4.4813,27.24106 -4.8396,-27.24106 h -5.7327 l -5.0215,27.24106 -4.2994,-27.24106 h -7.1658 l 8.0643,51.07561 h 6.4491 l 4.8397,-26.70087 4.8396,26.70087 h 6.2728 z m 0,0" style="fill:#1c1714;fill-opacity:1;stroke:none;stroke-width:0.35277775" ns3:connector-curvature="0" transform="matrix(1.497183,0.000000,0.000000,1.497183,-1237.310148,-249.082172)"/>
    <path xmlns="http://www.w3.org/2000/svg" id="C65b" d="M 42.05393,259.7658 29.326367,208.69019 H 22.160568 L 9.4385239,259.7658 h 7.3476971 l 3.400996,-13.97882 h 10.936111 l 3.5829,13.97882 z M 29.326367,238.62118 h -7.347698 l 3.58841,-14.6954 z m 0,0" style="fill:#1c1714;fill-opacity:1;stroke:none;stroke-width:0.35277775" ns3:connector-curvature="0" transform="matrix(1.495828,0.000000,0.000000,1.495828,315.443423,-248.764793)"/>
    <path xmlns="http://www.w3.org/2000/svg" id="C89" d="m 1131.2106,208.69019 h -7.8879 l -8.4224,18.4602 -8.5989,-18.4602 h -7.706 l 12.5401,27.95764 v 23.11797 h 7.3477 v -23.11797 z m 0,0" style="fill:#1c1714;fill-opacity:1;stroke:none;stroke-width:0.35277775" ns3:connector-curvature="0" transform="matrix(1.495838,0.000000,0.000000,1.495838,-1260.399874,-248.767136)"/>
    </g>
  </g>
</svg>
