<svg width="38.0in" height="50.0in" viewBox="0 0 965.1999999999999 1270.0">
  <g xmlns:ns0="http://www.inkscape.org/namespaces/inkscape" ns0:label="border" ns0:groupmode="layer">
    <ns1:path xmlns:ns1="http://www.w3.org/2000/svg" style="stroke:#000000;stroke-width:1.3229166666404566;fill:#ffffff" d="M57.15,0 a 57.15,57.15 0 0 0 -57.15,57.15 l 0,1104.8999999999999 a 57.15,57.15 0 0 0 57.15,57.15 l 800.1,0 a 57.15,57.15 0 0 0 57.15-57.15 l 0,-1104.8999999999999 a 57.15,57.15 0 0 0 -57.15-57.15 l -800.1,0 z" ns0:label="border_outside" transform="matrix(1.000000,0.000000,0.000000,1.000000,25.400000,25.400000)"/>
    <ns2:path xmlns:ns2="http://www.w3.org/2000/svg" style="stroke:#231f20;stroke-width:1.3229166666404566;fill:#231f20" d="M57.15,15.875 a 41.275,41.275 0 0 0 -41.275,41.275 l 0,1104.8999999999999 a 41.275,41.275 0 0 0 41.275,41.275 l 800.1,0 a 41.275,41.275 0 0 0 41.275-41.275 l 0,-1104.8999999999999 a 41.275,41.275 0 0 0 -41.275-41.275 l -800.1,0 z M57.14999999999999,38.099999999999994 l 800.0999999999999,0 a 19.05,19.05 0 0 1 19.05,19.05 l 0,1104.8999999999999 a 19.05,19.05 0 0 1 -19.05,19.05 l -800.0999999999999,0 a 19.05,19.05 0 0 1 -19.05,-19.05 l 0,-1104.8999999999999 a 19.05,19.05 0 0 1 19.05,-19.05 z" ns0:label="border" transform="matrix(1.000000,0.000000,0.000000,1.000000,25.400000,25.400000)"/>
  </g>
  <g xmlns:ns3="http://www.inkscape.org/namespaces/inkscape" ns3:label="messages" ns3:groupmode="layer">
    <g ns3:label="SPEED" fill="#231f20"><path xmlns="http://www.w3.org/2000/svg" id="E83" d="m 994.85675,41.675187 c 0,-5.55625 -2.8663,-10.39591 -7.34766,-12.72756 -2.86633,-1.43316 -7.3477,-2.86632 -14.15521,-4.29948 -6.27283,-1.433162 -8.06428,-2.689932 -8.06428,-5.556252 0,-3.2246 3.04271,-5.19795 8.24066,-5.19795 4.83967,0 8.96276,1.61506 12.18738,5.01606 l 6.80751,-6.090941 c -5.19797,-5.3743402 -11.46528,-7.8823692 -18.99489,-7.8823692 -10.39592,0 -17.56171,5.7326392 -17.56171,14.1552002 0,3.22462 1.07487,6.272832 3.22461,8.604482 2.14974,2.50802 4.83967,3.75928 10.03763,5.01605 l 2.50803,0.71659 2.33163,0.53467 2.32613,0.7221 c 2.33164,0.53467 4.305,1.25125 6.09644,1.96783 2.14974,1.07487 3.22462,2.68993 3.22462,4.65777 0,3.7648 -4.65777,6.63112 -11.1125,6.63112 -5.73264,0 -9.85573,-1.96784 -13.62053,-6.44922 l -7.3477,5.73264 c 5.73815,6.631121 12.36927,9.861241 21.15012,9.861241 4.65778,0 9.31554,-1.256771 12.90396,-3.40651 4.83416,-2.866321 7.16576,-6.813021 7.16576,-12.005471 z m 0,0" style="fill:#1c1714;fill-opacity:1;stroke:none;stroke-width:0.35277775" ns3:connector-curvature="0" transform="matrix(2.996620,0.000000,0.000000,2.996620,-2733.341736,161.069026)"/>
    <path xmlns="http://www.w3.org/2000/svg" id="E80" d="m 836.96242,21.068004 c 0,-5.73815 -3.04822,-10.754211 -7.88789,-13.4441412 -2.86632,-1.60955 -5.19796,-2.14974 -9.13915,-2.14974 H 796.10083 V 56.549739 h 9.32105 v -20.06975 h 14.5135 c 3.94119,0 6.27283,-0.35829 9.13915,-1.97335 4.83967,-2.68993 7.88789,-8.06428 7.88789,-13.438635 z m -9.13915,0 c 0,3.759295 -3.04822,6.272835 -7.5296,6.272835 H 805.42188 V 14.613274 h 14.87179 c 4.48138,0 7.5296,2.50803 7.5296,6.45473 z m 0,0" style="fill:#1c1714;fill-opacity:1;stroke:none;stroke-width:0.35277775" ns3:connector-curvature="0" transform="matrix(3.022893,0.000000,0.000000,3.022893,-2128.181733,160.254251)"/>
    <path xmlns="http://www.w3.org/2000/svg" id="E69" d="m 257.32848,56.549733 v -9.13915 h -28.85061 v -13.97882 h 15.23008 V 24.110715 H 228.47787 V 14.613279 H 256.43 V 5.4741288 H 219.15682 V 56.549733 Z m 0,0" style="fill:#1c1714;fill-opacity:1;stroke:none;stroke-width:0.35277775" ns3:connector-curvature="0" transform="matrix(2.994368,0.000000,0.000000,2.994368,-228.462067,161.138866)"/>
    <path xmlns="http://www.w3.org/2000/svg" id="E694" d="m 257.32848,56.549733 v -9.13915 h -28.85061 v -13.97882 h 15.23008 V 24.110715 H 228.47787 V 14.613279 H 256.43 V 5.4741288 H 219.15682 V 56.549733 Z m 0,0" style="fill:#1c1714;fill-opacity:1;stroke:none;stroke-width:0.35277775" ns3:connector-curvature="0" transform="matrix(2.994368,0.000000,0.000000,2.994368,-83.682067,161.138866)"/>
    <path xmlns="http://www.w3.org/2000/svg" id="E68" d="m 206.10173,30.923733 c 0,-10.037623 -4.30499,-17.743614 -12.18737,-22.2249942 -3.7648,-2.14974 -7.88789,-3.22461 -12.18737,-3.22461 H 165.24014 V 56.549733 h 16.48685 c 4.12309,0 8.42257,-1.07487 12.00547,-3.04822 8.06428,-4.48138 12.36927,-12.36376 12.36927,-22.57778 z m -9.13915,0 c 0,6.98941 -2.51354,11.64718 -7.88789,14.5135 -2.14974,1.25677 -4.65777,1.97335 -7.3477,1.97335 H 174.5612 V 14.613279 h 7.16579 c 2.68993,0 5.37435,0.716581 7.70599,1.973351 5.01606,2.86632 7.5296,7.524085 7.5296,14.337103 z m 0,0" style="fill:#1c1714;fill-opacity:1;stroke:none;stroke-width:0.35277775" ns3:connector-curvature="0" transform="matrix(3.022893,0.000000,0.000000,3.022893,217.830830,160.254251)"/>
    </g>
    <g ns3:label="LIMIT" fill="#231f20"><path xmlns="http://www.w3.org/2000/svg" id="E76" d="m 625.33054,56.549739 v -7.88789 H 596.29803 V 5.4741228 h -9.13915 V 56.549739 Z m 0,0" style="fill:#1c1714;fill-opacity:1;stroke:none;stroke-width:0.35277775" ns3:connector-curvature="0" transform="matrix(2.994368,0.000000,0.000000,2.994368,-1554.499860,440.538866)"/>
    <path xmlns="http://www.w3.org/2000/svg" id="E73" d="M 453.09917,56.54974 V 5.4741228 h -9.13915 V 56.54974 Z m 0,0" style="fill:#1c1714;fill-opacity:1;stroke:none;stroke-width:0.35277775" ns3:connector-curvature="0" transform="matrix(3.001592,0.000000,0.000000,3.001592,-988.708944,440.314835)"/>
    <path xmlns="http://www.w3.org/2000/svg" id="E77" d="M 682.74199,56.549739 V 5.4741228 h -8.96276 L 658.72554,35.763409 643.85375,5.4741228 H 634.891 V 56.549739 h 8.96275 v -31.18225 l 14.87179,31.18225 15.05369,-31.18225 v 31.18225 z m 0,0" style="fill:#1c1714;fill-opacity:1;stroke:none;stroke-width:0.35277775" ns3:connector-curvature="0" transform="matrix(2.995386,0.000000,0.000000,2.995386,-1490.809706,440.507296)"/>
    <path xmlns="http://www.w3.org/2000/svg" id="E73o" d="M 453.09917,56.54974 V 5.4741228 h -9.13915 V 56.54974 Z m 0,0" style="fill:#1c1714;fill-opacity:1;stroke:none;stroke-width:0.35277775" ns3:connector-curvature="0" transform="matrix(3.001592,0.000000,0.000000,3.001592,-738.696744,440.314835)"/>
    <path xmlns="http://www.w3.org/2000/svg" id="E84" d="M 1045.9928,14.456398 V 5.4936368 h -38.3483 v 8.9627612 h 14.6954 v 42.112873 h 8.9572 V 14.456398 Z m 0,0" style="fill:#1c1714;fill-opacity:1;stroke:none;stroke-width:0.35277775" ns3:connector-curvature="0" transform="matrix(2.980575,0.000000,0.000000,2.980575,-2356.129898,440.908424)"/>
    </g>
    <g ns3:label="50" fill="#231f20"><path xmlns="http://www.w3.org/2000/svg" id="E53" d="m 2992.5821,38.98801 c 0,-10.57231 -8.4226,-18.4602 -20.0697,-18.4602 -3.2302,0 -5.7382,0.35829 -9.8613,1.25677 l 0.5402,-7.347701 h 25.2677 l 0.1819,-8.9627602 h -34.0541 l -1.6095,24.0164512 9.1391,2.32612 c 3.7648,-1.43315 6.4493,-1.96783 9.8558,-1.96783 3.7648,0 6.4547,0.71658 8.2461,2.14974 1.9679,1.60955 3.2247,4.29948 3.2247,6.98941 0,5.73264 -4.6578,9.13915 -12.3638,9.13915 -5.198,0 -10.3959,-1.43316 -14.8773,-4.12309 l -4.8397,7.70599 c 6.4548,3.94118 12.7276,5.73815 19.717,5.73815 12.5401,0 21.5029,-7.70599 21.5029,-18.4602 z m 0,0" style="fill:#1c1714;fill-opacity:1;stroke:none;stroke-width:0.35277775" ns3:connector-curvature="0" transform="matrix(6.992103,0.000000,0.000000,6.992103,-20477.402286,694.420298)"/>
    <path xmlns="http://www.w3.org/2000/svg" id="E48" d="m 3256.2456,30.739075 c 0,-12.90395 -6.091,-26.1606802 -21.3266,-26.1606802 -15.0536,0 -21.5029,12.8984402 -21.5029,26.3425802 0,13.43863 6.2729,26.52448 21.5029,26.52448 15.412,0 21.3266,-13.62053 21.3266,-26.70638 z m -9.1392,0 c 0,10.57231 -4.6577,17.56172 -12.1874,17.56172 -7.7059,0 -12.3637,-6.26732 -12.3637,-17.56172 0,-7.52409 3.2246,-17.02153 12.3637,-17.02153 7.706,0 12.1874,6.44922 12.1874,17.20343 z m 0,0" style="fill:#1c1714;fill-opacity:1;stroke:none;stroke-width:0.35277775" ns3:connector-curvature="0" transform="matrix(6.978410,0.000000,0.000000,6.978410,-21917.043052,697.986073)"/>
    </g>
  </g>
</svg>
