<svg width="26.0in" height="26.0in" viewBox="0 0 660.4 660.4">
  <g xmlns:ns0="http://www.inkscape.org/namespaces/inkscape" ns0:label="border" ns0:groupmode="layer">
    <ns1:path xmlns:ns1="http://www.w3.org/2000/svg" style="stroke:#000000;stroke-width:1.3229166666404566;fill:#ffffff" d="M38.099999999999994,0 a 38.099999999999994,38.099999999999994 0 0 0 -38.099999999999994,38.099999999999994 l 0,533.3999999999999 a 38.099999999999994,38.099999999999994 0 0 0 38.099999999999994,38.099999999999994 l 533.3999999999999,0 a 38.099999999999994,38.099999999999994 0 0 0 38.099999999999994-38.099999999999994 l 0,-533.3999999999999 a 38.099999999999994,38.099999999999994 0 0 0 -38.099999999999994-38.099999999999994 l -533.3999999999999,0 z" ns0:label="border_outside" transform="matrix(1.000000,0.000000,0.000000,1.000000,25.400000,25.400000)"/>
    <ns2:path xmlns:ns2="http://www.w3.org/2000/svg" style="stroke:#231f20;stroke-width:1.3229166666404566;fill:#231f20" d="M38.099999999999994,9.524999999999999 a 28.574999999999996,28.574999999999996 0 0 0 -28.574999999999996,28.574999999999996 l 0,533.4 a 28.574999999999996,28.574999999999996 0 0 0 28.574999999999996,28.574999999999996 l 533.4,0 a 28.574999999999996,28.574999999999996 0 0 0 28.574999999999996-28.574999999999996 l 0,-533.4 a 28.574999999999996,28.574999999999996 0 0 0 -28.574999999999996-28.574999999999996 l -533.4,0 z M38.099999999999994,25.4 l 533.4,0 a 12.699999999999996,12.699999999999996 0 0 1 12.699999999999996,12.699999999999996 l 0,533.4 a 12.699999999999996,12.699999999999996 0 0 1 -12.699999999999996,12.699999999999996 l -533.4,0 a 12.699999999999996,12.699999999999996 0 0 1 -12.699999999999996,-12.699999999999996 l 0,-533.4 a 12.699999999999996,12.699999999999996 0 0 1 12.699999999999996,-12.699999999999996 z" ns0:label="border" transform="matrix(1.000000,0.000000,0.000000,1.000000,25.400000,25.400000)"/>
  </g>
  <g xmlns:ns3="http://www.inkscape.org/namespaces/inkscape" ns3:label="messages" ns3:groupmode="layer">
    <g ns3:label="TRUCKS" fill="#231f20"><path xmlns="http://www.w3.org/2000/svg" id="D84" d="m 972.94263,114.25945 v -7.1713 h -31.53921 v 7.1713 h 11.64705 v 43.9043 h 8.06375 v -43.9043 z m 0,0" style="fill:#1c1714;fill-opacity:1;stroke:none;stroke-width:0.35277775" ns3:connector-curvature="0" transform="matrix(1.998065,0.000000,0.000000,1.998065,-1799.895720,-87.195269)"/>
    <path xmlns="http://www.w3.org/2000/svg" id="D82" d="m 878.21338,158.16375 -8.96277,-23.83455 c 4.65777,-2.14974 7.8879,-7.5296 7.8879,-12.90394 0,-5.19796 -3.23013,-10.57231 -7.70599,-12.72205 -2.51354,-1.25677 -5.19796,-1.61506 -9.13915,-1.61506 h -16.85065 v 51.0756 h 8.06428 v -22.21949 h 9.67934 l 8.24618,22.21949 z m -9.13915,-36.73849 c 0,2.14973 -1.25678,4.29947 -3.23013,5.37434 -1.25125,0.71658 -2.14974,0.89848 -4.65776,0.89848 H 851.507 v -12.54566 h 9.67934 c 2.68993,0 3.40651,0.18191 4.65776,0.89849 1.97335,1.07487 3.23013,3.22461 3.23013,5.37435 z m 0,0" style="fill:#1c1714;fill-opacity:1;stroke:none;stroke-width:0.35277775" ns3:connector-curvature="0" transform="matrix(1.989154,0.000000,0.000000,1.989154,-1518.390559,-86.013439)"/>
    <path xmlns="http://www.w3.org/2000/svg" id="D85" d="m 1022.7299,139.88545 v -32.7973 h -8.0639 v 32.7973 c 0,6.63112 -3.7645,10.9306 -9.3205,10.9306 -5.55594,0 -9.32054,-4.29948 -9.32054,-10.9306 v -32.7973 h -8.06385 v 32.7973 c 0,3.94119 0.89847,7.52409 2.33148,10.57231 2.68985,5.01606 8.78037,8.60447 15.05291,8.60447 6.2724,0 12.3631,-3.58841 15.0528,-8.60447 1.4331,-3.04822 2.3316,-6.63112 2.3316,-10.57231 z m 0,0" style="fill:#1c1714;fill-opacity:1;stroke:none;stroke-width:0.35277775" ns3:connector-curvature="0" transform="matrix(1.989261,0.000000,0.000000,1.989261,-1719.529405,-86.921286)"/>
    <path xmlns="http://www.w3.org/2000/svg" id="D67" d="m 155.62651,147.76783 -7.70599,-2.86632 c -1.97335,4.12309 -4.48138,5.91454 -7.88789,5.91454 -3.5829,0 -5.91454,-1.25677 -7.70599,-3.94119 -1.97335,-3.22461 -3.22461,-8.78086 -3.22461,-14.33711 0,-4.30499 0.71658,-8.78086 1.97335,-11.82908 1.79145,-4.48138 4.47587,-6.27283 8.59896,-6.27283 3.94119,0 5.55625,1.07487 8.42257,5.37435 l 7.5296,-3.22461 c -3.40651,-7.16579 -8.24619,-10.39041 -15.95217,-10.39041 -5.73264,0 -10.03763,1.96784 -13.08034,5.73264 -3.58841,4.48138 -5.73815,12.54566 -5.73815,20.60994 0,6.44922 1.43316,12.90395 3.7648,17.37982 3.22461,6.27283 8.06428,9.14466 15.59388,9.14466 7.3477,0 12.36376,-3.7648 15.41198,-11.2944 z m 0,0" style="fill:#1c1714;fill-opacity:1;stroke:none;stroke-width:0.35277775" ns3:connector-curvature="0" transform="matrix(1.989154,0.000000,0.000000,1.989154,96.898404,-86.018909)"/>
    <path xmlns="http://www.w3.org/2000/svg" id="D75" d="M 541.45267,158.16375 524.60753,126.9815 540.3778,107.08814 h -10.39041 l -16.13407,20.25165 v -20.25165 h -8.06428 v 51.07561 h 8.06428 v -17.56172 l 5.37986,-6.63112 12.90395,24.19284 z m 0,0" style="fill:#1c1714;fill-opacity:1;stroke:none;stroke-width:0.35277775" ns3:connector-curvature="0" transform="matrix(1.995613,0.000000,0.000000,1.995613,-580.543685,-86.870060)"/>
    <path xmlns="http://www.w3.org/2000/svg" id="D83" d="m 926.38311,143.46835 c 0,-20.06974 -24.01094,-13.79692 -24.72751,-23.29987 -0.3583,-4.65776 4.12309,-6.09092 7.88237,-5.90903 5.73816,0.17639 7.5296,4.47587 7.5296,4.47587 l 7.1658,-2.14974 c -2.50802,-6.27282 -7.3477,-10.3904 -14.51349,-10.3904 -9.13916,0 -15.95218,3.75929 -15.95218,13.79691 0,8.42257 6.81302,11.4708 9.85573,12.72205 6.63112,2.68993 14.51901,3.7648 14.51901,10.57782 0,4.29948 -3.22461,7.52409 -7.88789,7.52409 -4.83415,0 -8.78086,-2.68993 -10.9306,-7.52409 l -7.70599,2.86633 c 3.40651,7.70599 9.85573,12.90394 18.63659,12.90394 4.30499,0 8.24618,-1.43867 11.1125,-3.9467 3.22461,-2.86632 5.01606,-6.98941 5.01606,-11.64718 z m 0,0" style="fill:#1c1714;fill-opacity:1;stroke:none;stroke-width:0.35277775" ns3:connector-curvature="0" transform="matrix(1.989469,0.000000,0.000000,1.989469,-1263.699985,-86.060697)"/>
    </g>
    <g ns3:label="40" fill="#231f20"><path xmlns="http://www.w3.org/2000/svg" id="E52" d="m 2943.4142,46.15381 v -8.24067 h -7.5296 V 5.4741198 h -8.9572 L 2895.3868,37.91314 v 8.24067 h 31.5406 v 10.39592 h 8.9572 V 46.15381 Z m -16.4868,-8.24067 h -19.8934 l 19.8934,-20.43355 z m 0,0" style="fill:#1c1714;fill-opacity:1;stroke:none;stroke-width:0.35277775" ns3:connector-curvature="0" transform="matrix(4.973973,0.000000,0.000000,4.973973,-14322.962763,264.847523)"/>
    <path xmlns="http://www.w3.org/2000/svg" id="E48" d="m 3256.2456,30.739075 c 0,-12.90395 -6.091,-26.1606802 -21.3266,-26.1606802 -15.0536,0 -21.5029,12.8984402 -21.5029,26.3425802 0,13.43863 6.2729,26.52448 21.5029,26.52448 15.412,0 21.3266,-13.62053 21.3266,-26.70638 z m -9.1392,0 c 0,10.57231 -4.6577,17.56172 -12.1874,17.56172 -7.7059,0 -12.3637,-6.26732 -12.3637,-17.56172 0,-7.52409 3.2246,-17.02153 12.3637,-17.02153 7.706,0 12.1874,6.44922 12.1874,17.20343 z m 0,0" style="fill:#1c1714;fill-opacity:1;stroke:none;stroke-width:0.35277775" ns3:connector-curvature="0" transform="matrix(4.984578,0.000000,0.000000,4.984578,-15649.223189,264.518641)"/>
    </g>
  </g>
</svg>
