<svg width="26.0in" height="20.0in" viewBox="0 0 660.4 508.0">
  <g xmlns:ns0="http://www.inkscape.org/namespaces/inkscape" ns0:label="border" ns0:groupmode="layer">
    <ns1:path xmlns:ns1="http://www.w3.org/2000/svg" style="stroke:#000000;stroke-width:1.3229166666404566;fill:#ffffff" d="M38.099999999999994,0 a 38.099999999999994,38.099999999999994 0 0 0 -38.099999999999994,38.099999999999994 l 0,381.0 a 38.099999999999994,38.099999999999994 0 0 0 38.099999999999994,38.099999999999994 l 533.3999999999999,0 a 38.099999999999994,38.099999999999994 0 0 0 38.099999999999994-38.099999999999994 l 0,-381.0 a 38.099999999999994,38.099999999999994 0 0 0 -38.099999999999994-38.099999999999994 l -533.3999999999999,0 z" ns0:label="border_outside" transform="matrix(1.000000,0.000000,0.000000,1.000000,25.400000,25.400000)"/>
    <ns2:path xmlns:ns2="http://www.w3.org/2000/svg" style="stroke:#231f20;stroke-width:1.3229166666404566;fill:#231f20" d="M38.099999999999994,9.524999999999999 a 28.574999999999996,28.574999999999996 0 0 0 -28.574999999999996,28.574999999999996 l 0,381.0 a 28.574999999999996,28.574999999999996 0 0 0 28.574999999999996,28.574999999999996 l 533.4,0 a 28.574999999999996,28.574999999999996 0 0 0 28.574999999999996-28.574999999999996 l 0,-381.0 a 28.574999999999996,28.574999999999996 0 0 0 -28.574999999999996-28.574999999999996 l -533.4,0 z M38.099999999999994,25.4 l 533.4,0 a 12.699999999999996,12.699999999999996 0 0 1 12.699999999999996,12.699999999999996 l 0,381.0 a 12.699999999999996,12.699999999999996 0 0 1 -12.699999999999996,12.699999999999996 l -533.4,0 a 12.699999999999996,12.699999999999996 0 0 1 -12.699999999999996,-12.699999999999996 l 0,-381.0 a 12.699999999999996,12.699999999999996 0 0 1 12.699999999999996,-12.699999999999996 z" ns0:label="border" transform="matrix(1.000000,0.000000,0.000000,1.000000,25.400000,25.400000)"/>
  </g>
  <g xmlns:ns3="http://www.inkscape.org/namespaces/inkscape" ns3:label="messages" ns3:groupmode="layer">
    <g ns3:label="$150" fill="#231f20"><path xmlns="http://www.w3.org/2000/svg" id="D36" d="m 3238.6615,143.44956 c 0,-20.06975 -24.011,-13.79692 -24.7276,-23.29987 -0.3582,-4.65777 4.1231,-6.09093 7.8824,-5.90903 5.7382,0.17639 7.5296,4.47587 7.5296,4.47587 l 7.1658,-2.14974 c -1.9678,-5.19796 -5.5562,-8.78086 -10.7487,-10.03211 0,0 0,-6.989414 0,-6.989414 h -8.0643 c 0,0 0,7.165804 0,6.989414 -6.9894,1.07487 -11.6526,5.19244 -11.6526,13.43862 0,8.42257 6.813,11.47079 9.8557,12.72205 6.6311,2.68993 14.519,3.7648 14.519,10.57782 0,4.29948 -3.2246,7.52409 -7.8879,7.52409 -4.8342,0 -8.7809,-2.68993 -10.9306,-7.52409 l -7.706,2.86632 c 2.6899,6.27283 7.5296,10.7487 13.8024,12.18737 -0.1819,0.17639 0,7.1658 0,7.1658 h 8.0643 v -6.44922 c 2.6844,-0.71658 6.091,-2.33164 7.8824,-3.9467 3.2246,-2.86632 5.0161,-6.98941 5.0161,-11.64718 z m 0,0" style="fill:#1c1714;fill-opacity:1;stroke:none;stroke-width:0.35277775" ns3:connector-curvature="0" transform="matrix(1.989466,0.000000,0.000000,1.989466,-6190.756348,-98.541971)"/>
    <path xmlns="http://www.w3.org/2000/svg" id="D49" d="m 2553.3161,158.16375 v -51.0756 h -6.4492 c -1.4331,1.97335 -3.7648,3.22461 -5.9145,3.22461 h -0.5402 v 6.45473 h 4.6633 v 41.39626 z m 0,0" style="fill:#1c1714;fill-opacity:1;stroke:none;stroke-width:0.35277775" ns3:connector-curvature="0" transform="matrix(1.968397,0.000000,0.000000,1.968397,-4732.849152,-95.960522)"/>
    <path xmlns="http://www.w3.org/2000/svg" id="D53" d="m 2756.9395,139.34526 c 0,-9.31553 -7.706,-17.20342 -17.0271,-17.20342 -2.508,0 -4.1231,0.35829 -7.8879,1.43316 l 0.5402,-8.42257 h 21.5029 v -8.06428 h -29.3853 l -1.2567,26.34257 8.0642,2.33165 c 3.0483,-4.29948 4.6578,-5.37435 8.2462,-5.37435 5.0161,0 9.1392,3.94119 9.1392,8.95724 0,6.63112 -5.7382,11.47079 -13.0859,11.47079 -3.7648,0 -7.5241,-0.71658 -9.6738,-1.79144 l -3.9467,7.16579 c 3.5884,1.79145 8.0643,2.87183 12.5457,2.87183 12.9039,0 22.225,-8.42808 22.225,-19.71697 z m 0,0" style="fill:#1c1714;fill-opacity:1;stroke:none;stroke-width:0.35277775" ns3:connector-curvature="0" transform="matrix(1.989152,0.000000,0.000000,1.989152,-5099.364917,-99.606780)"/>
    <path xmlns="http://www.w3.org/2000/svg" id="D48" d="m 2998.5185,132.71139 c 0,-6.44922 -1.2568,-12.90396 -3.4065,-17.37983 -3.2246,-6.27282 -7.706,-9.13914 -14.1552,-9.13914 -5.9146,0 -10.0377,1.79145 -13.0859,5.73263 -3.4065,4.83968 -5.5562,12.36376 -5.5562,20.78634 0,6.09643 1.4331,12.90394 3.5884,17.20342 3.0427,6.27283 7.5241,9.14466 14.6954,9.14466 5.3743,0 9.4974,-1.79696 12.3637,-5.73815 3.5829,-4.48138 5.5563,-12.54566 5.5563,-20.60993 z m -8.0643,0 c 0,3.94669 -0.8985,8.96276 -1.9733,11.65268 -1.7915,4.47587 -4.1231,6.44922 -7.8824,6.44922 -3.2301,0 -5.3799,-1.25677 -6.9894,-3.94119 -1.9734,-3.2246 -3.0483,-8.78085 -3.0483,-14.16071 0,-4.29948 0.7166,-8.95726 1.9734,-12.00548 1.7914,-4.48138 4.2995,-6.44921 8.2407,-6.27283 3.0482,0.18191 5.016,1.25677 6.6311,3.94119 1.9733,3.40651 3.0482,8.60448 3.0482,14.33712 z m 0,0" style="fill:#1c1714;fill-opacity:1;stroke:none;stroke-width:0.35277775" ns3:connector-curvature="0" transform="matrix(1.993901,0.000000,0.000000,1.993901,-5501.635439,-99.343004)"/>
    </g>
    <g ns3:label="FINE" fill="#231f20"><path xmlns="http://www.w3.org/2000/svg" id="D70" d="m 298.6198,115.15241 v -8.06427 h -31.72244 v 51.07561 h 8.06428 v -22.21949 h 14.8773 v -8.24619 h -14.8773 v -12.54566 z m 0,0" style="fill:#1c1714;fill-opacity:1;stroke:none;stroke-width:0.35277775" ns3:connector-curvature="0" transform="matrix(1.986524,0.000000,0.000000,1.986524,-337.729505,79.435377)"/>
    <path xmlns="http://www.w3.org/2000/svg" id="D73" d="m 431.39902,158.16375 v -51.07561 h -8.24618 v 51.07561 z m 0,0" style="fill:#1c1714;fill-opacity:1;stroke:none;stroke-width:0.35277775" ns3:connector-curvature="0" transform="matrix(1.971337,0.000000,0.000000,1.971337,-563.450950,81.449567)"/>
    <path xmlns="http://www.w3.org/2000/svg" id="D78" d="m 685.52356,158.16375 v -51.0756 h -8.06428 v 32.6154 l -18.64211,-32.6154 h -8.06428 v 51.0756 h 8.06428 v -34.58876 l 19.53508,34.58876 z m 0,0" style="fill:#1c1714;fill-opacity:1;stroke:none;stroke-width:0.35277775" ns3:connector-curvature="0" transform="matrix(1.989154,0.000000,0.000000,1.989154,-983.081823,79.086561)"/>
    <path xmlns="http://www.w3.org/2000/svg" id="D69" d="m 250.44735,158.16375 v -8.24618 h -23.65816 v -13.97331 h 14.8773 v -8.24619 h -14.8773 v -12.54566 h 22.0431 v -8.06427 h -30.10738 v 51.07561 z m 0,0" style="fill:#1c1714;fill-opacity:1;stroke:none;stroke-width:0.35277775" ns3:connector-curvature="0" transform="matrix(1.986524,0.000000,0.000000,1.986524,-29.588177,79.435377)"/>
    </g>
  </g>
</svg>
