<svg width="44.42640687119285in" height="44.42640687119285in" viewBox="0 0 1128.4307345282984 1128.4307345282984">
  <g xmlns:ns0="http://www.inkscape.org/namespaces/inkscape" ns0:label="border" ns0:groupmode="layer">
    <ns1:path xmlns:ns1="http://www.w3.org/2000/svg" style="stroke:#ffd24f;stroke-width:1.3229166666404566;fill:#ffd24f" d="M47.625,0 a 47.625,47.625 0 0 0 -47.625,47.625 l 0,666.75 a 47.625,47.625 0 0 0 47.625,47.625 l 666.75,0 a 47.625,47.625 0 0 0 47.625-47.625 l 0,-666.75 a 47.625,47.625 0 0 0 -47.625-47.625 l -666.75,0 z" ns0:label="border_outside" transform="matrix(0.707107,0.707107,-0.707107,0.707107,564.215367,25.400000)"/>
    <ns2:path xmlns:ns2="http://www.w3.org/2000/svg" style="stroke:#231f20;stroke-width:1.3229166666404566;fill:#231f20" d="M47.625,12.7 a 34.925,34.925 0 0 0 -34.925,34.925 l 0,666.75 a 34.925,34.925 0 0 0 34.925,34.925 l 666.75,0 a 34.925,34.925 0 0 0 34.925-34.925 l 0,-666.75 a 34.925,34.925 0 0 0 -34.925-34.925 l -666.75,0 z M47.625,31.749999999999996 l 666.75,0 a 15.875,15.875 0 0 1 15.875,15.875 l 0,666.75 a 15.875,15.875 0 0 1 -15.875,15.875 l -666.75,0 a 15.875,15.875 0 0 1 -15.875,-15.875 l 0,-666.75 a 15.875,15.875 0 0 1 15.875,-15.875 z" ns0:label="boder" transform="matrix(0.707107,0.707107,-0.707107,0.707107,564.215367,25.400000)"/>
  </g>
  <g xmlns:ns3="http://www.inkscape.org/namespaces/inkscape" ns3:label="messages" ns3:groupmode="layer">
    <g ns3:label="TRUCKS" fill="#231f20"><path xmlns="http://www.w3.org/2000/svg" id="C84" d="m 900.98753,215.50321 v -6.81302 h -25.98428 v 6.81302 h 9.31554 v 44.26259 h 7.34769 v -44.26259 z m 0,0" style="fill:#1c1714;fill-opacity:1;stroke:none;stroke-width:0.35277775" ns3:connector-curvature="0" transform="matrix(2.493883,0.000000,0.000000,2.493883,-1880.925615,-276.461848)"/>
    <path xmlns="http://www.w3.org/2000/svg" id="C82" d="m 811.56943,259.7658 -7.34769,-25.09132 c 4.83967,-1.79145 7.34769,-6.27283 7.34769,-12.36376 0,-8.24618 -5.37986,-13.62053 -13.44413,-13.62053 h -15.23008 v 51.07561 h 7.3477 v -24.01645 h 6.98941 l 6.8075,24.01645 z m -7.17131,-37.45508 c 0,4.12309 -2.32612,6.44922 -6.63112,6.44922 h -7.52408 V 215.8615 h 7.52408 c 3.9467,0 6.63112,2.50803 6.63112,6.44922 z m 0,0" style="fill:#1c1714;fill-opacity:1;stroke:none;stroke-width:0.35277775" ns3:connector-curvature="0" transform="matrix(2.481385,0.000000,0.000000,2.481385,-1558.852591,-273.534466)"/>
    <path xmlns="http://www.w3.org/2000/svg" id="C85" d="m 947.71402,244.53021 v -35.84002 h -7.34769 v 36.7385 c 0,4.83967 -2.86633,8.06428 -6.81302,8.06428 -4.29948,0 -7.16581,-3.22461 -7.16581,-8.06428 v -36.7385 h -7.3477 v 35.84002 c 0,4.12309 0.53468,6.27283 1.97336,8.96276 2.50803,4.29948 7.52408,7.17131 12.54015,7.17131 4.83966,0 9.67933,-3.04822 12.18736,-7.17131 1.43316,-2.68993 1.97335,-4.83967 1.97335,-8.96276 z m 0,0" style="fill:#1c1714;fill-opacity:1;stroke:none;stroke-width:0.35277775" ns3:connector-curvature="0" transform="matrix(2.481384,0.000000,0.000000,2.481384,-1803.937038,-274.648969)"/>
    <path xmlns="http://www.w3.org/2000/svg" id="C67" d="m 130.75821,222.31072 c -0.54019,-4.65777 -1.25677,-6.80751 -3.22461,-9.32105 -2.33164,-3.401 -5.91454,-5.19245 -10.03763,-5.19245 -10.03763,0 -15.23559,8.78086 -15.23559,25.26771 0,18.81298 4.83967,27.59935 15.77027,27.59935 7.17131,0 12.54566,-6.09644 12.72756,-14.51901 h -7.3477 c 0,3.7648 -1.07487,7.3477 -5.37986,7.3477 -6.27283,0 -8.78086,-5.91454 -8.78086,-20.60994 0,-13.26224 2.14974,-17.92001 8.06428,-17.92001 3.40651,0 5.37986,2.33164 6.09644,7.3477 z m 0,0" style="fill:#1c1714;fill-opacity:1;stroke:none;stroke-width:0.35277775" ns3:connector-curvature="0" transform="matrix(2.496743,0.000000,0.000000,2.496743,317.787476,-277.138618)"/>
    <path xmlns="http://www.w3.org/2000/svg" id="C75" d="m 493.8987,259.7658 -11.82908,-33.1556 10.57231,-17.92001 h -8.42257 l -11.64718,20.42804 v -20.42804 h -7.3477 v 51.07561 h 7.3477 v -16.31046 l 4.65777,-8.59896 8.96276,24.90942 z m 0,0" style="fill:#1c1714;fill-opacity:1;stroke:none;stroke-width:0.35277775" ns3:connector-curvature="0" transform="matrix(2.481384,0.000000,0.000000,2.481384,-484.743464,-273.534232)"/>
    <path xmlns="http://www.w3.org/2000/svg" id="C83" d="m 856.86003,245.78698 c 0,-7.3477 -4.29948,-12.90395 -14.1552,-18.63659 -3.76481,-2.14974 -4.83968,-3.5829 -4.83968,-6.09644 0,-3.401 2.68994,-5.90903 6.09093,-5.90903 3.22461,0 5.73815,2.32613 5.91454,5.90903 h 6.98941 c -0.17639,-7.70599 -5.73264,-13.25673 -12.90395,-13.25673 -7.3477,0 -13.08034,5.90903 -13.08034,13.25673 0,4.48138 2.14974,8.42257 6.27284,11.2944 10.3904,6.98941 7.52408,5.01606 8.59895,6.09093 3.04822,2.33164 4.12309,4.48138 4.12309,7.3477 0,4.12309 -3.22461,7.70599 -7.16579,7.70599 -5.02158,0 -7.17132,-4.48138 -7.17132,-8.78086 h -7.1658 c 0,8.42257 5.37436,15.95217 14.33712,15.95217 7.88237,0 14.1552,-6.63112 14.1552,-14.8773 z m 0,0" style="fill:#1c1714;fill-opacity:1;stroke:none;stroke-width:0.35277775" ns3:connector-curvature="0" transform="matrix(2.497226,0.000000,0.000000,2.497226,-1312.572522,-277.251752)"/>
    </g>
    <g ns3:label="ENTERING" fill="#231f20"><path xmlns="http://www.w3.org/2000/svg" id="C69" d="M 220.26453,259.7658 V 252.6 h -18.63658 v -16.85065 h 10.57231 v -6.98941 H 201.62795 V 215.8615 h 16.66323 v -7.17131 h -24.01093 v 51.07561 z m 0,0" style="fill:#1c1714;fill-opacity:1;stroke:none;stroke-width:0.35277775" ns3:connector-curvature="0" transform="matrix(2.493883,0.000000,0.000000,2.493883,-245.527973,-58.021848)"/>
    <path xmlns="http://www.w3.org/2000/svg" id="C78" d="m 630.0433,259.7658 v -51.07561 h -7.3477 v 30.64757 l -13.97882,-30.64757 h -7.3477 v 51.07561 h 7.3477 v -34.23047 l 15.77027,34.23047 z m 0,0" style="fill:#1c1714;fill-opacity:1;stroke:none;stroke-width:0.35277775" ns3:connector-curvature="0" transform="matrix(2.481384,0.000000,0.000000,2.481384,-1166.851621,-55.094232)"/>
    <path xmlns="http://www.w3.org/2000/svg" id="C84X" d="m 900.98753,215.50321 v -6.81302 h -25.98428 v 6.81302 h 9.31554 v 44.26259 h 7.34769 v -44.26259 z m 0,0" style="fill:#1c1714;fill-opacity:1;stroke:none;stroke-width:0.35277775" ns3:connector-curvature="0" transform="matrix(2.493883,0.000000,0.000000,2.493883,-1767.847990,-58.021848)"/>
    <path xmlns="http://www.w3.org/2000/svg" id="C69n" d="M 220.26453,259.7658 V 252.6 h -18.63658 v -16.85065 h 10.57231 v -6.98941 H 201.62795 V 215.8615 h 16.66323 v -7.17131 h -24.01093 v 51.07561 z m 0,0" style="fill:#1c1714;fill-opacity:1;stroke:none;stroke-width:0.35277775" ns3:connector-curvature="0" transform="matrix(2.493883,0.000000,0.000000,2.493883,12.377277,-58.021848)"/>
    <path xmlns="http://www.w3.org/2000/svg" id="C82e" d="m 811.56943,259.7658 -7.34769,-25.09132 c 4.83967,-1.79145 7.34769,-6.27283 7.34769,-12.36376 0,-8.24618 -5.37986,-13.62053 -13.44413,-13.62053 h -15.23008 v 51.07561 h 7.3477 v -24.01645 h 6.98941 l 6.8075,24.01645 z m -7.17131,-37.45508 c 0,4.12309 -2.32612,6.44922 -6.63112,6.44922 h -7.52408 V 215.8615 h 7.52408 c 3.9467,0 6.63112,2.50803 6.63112,6.44922 z m 0,0" style="fill:#1c1714;fill-opacity:1;stroke:none;stroke-width:0.35277775" ns3:connector-curvature="0" transform="matrix(2.481385,0.000000,0.000000,2.481385,-1359.383216,-55.094466)"/>
    <path xmlns="http://www.w3.org/2000/svg" id="C73" d="m 392.38143,259.7658 v -51.07561 h -7.1658 v 51.07561 z m 0,0" style="fill:#1c1714;fill-opacity:1;stroke:none;stroke-width:0.35277775" ns3:connector-curvature="0" transform="matrix(2.481230,0.000000,0.000000,2.481230,-279.785584,-55.058161)"/>
    <path xmlns="http://www.w3.org/2000/svg" id="C78l" d="m 630.0433,259.7658 v -51.07561 h -7.3477 v 30.64757 l -13.97882,-30.64757 h -7.3477 v 51.07561 h 7.3477 v -34.23047 l 15.77027,34.23047 z m 0,0" style="fill:#1c1714;fill-opacity:1;stroke:none;stroke-width:0.35277775" ns3:connector-curvature="0" transform="matrix(2.481384,0.000000,0.000000,2.481384,-770.484621,-55.094232)"/>
    <path xmlns="http://www.w3.org/2000/svg" id="C71" d="m 312.28436,245.61059 v -10.57782 h -13.08585 v 7.17131 h 5.73815 v 3.40651 c 0,5.37435 -1.79144,7.88238 -5.55625,7.88238 -3.94118,0 -6.45473,-2.68993 -7.5296,-7.70599 -0.71658,-3.94119 -1.07487,-8.42257 -1.07487,-12.72205 0,-6.09644 0.89848,-11.82908 2.33164,-14.33711 1.25677,-2.50803 3.22461,-3.7648 5.73264,-3.7648 3.58842,0 5.91454,2.33164 6.09644,5.73264 h 7.3477 c -0.35829,-7.52408 -5.91454,-12.89843 -13.26223,-12.89843 -5.91455,0 -11.1125,3.94119 -12.90396,9.31553 -1.79144,4.83967 -2.33164,10.03763 -2.33164,17.20343 0,6.63112 1.07487,13.80243 2.68994,17.56172 2.50802,5.73815 6.98941,8.78637 13.08033,8.78637 5.19796,0 9.32105,-2.68993 11.2944,-7.17131 1.07487,-2.14974 1.43316,-4.29948 1.43316,-7.88238 z m 0,0" style="fill:#1c1714;fill-opacity:1;stroke:none;stroke-width:0.35277775" ns3:connector-curvature="0" transform="matrix(2.496743,0.000000,0.000000,2.496743,109.752706,-58.698631)"/>
    </g>
    <g ns3:label="HIGHWAY" fill="#231f20"><path xmlns="http://www.w3.org/2000/svg" id="C72" d="m 357.75407,259.7658 v -51.07561 h -7.3477 v 20.78633 h -13.97882 v -20.78633 h -7.34769 v 51.07561 h 7.34769 v -23.11797 h 13.97882 v 23.11797 z m 0,0" style="fill:#1c1714;fill-opacity:1;stroke:none;stroke-width:0.35277775" ns3:connector-curvature="0" transform="matrix(2.481385,0.000000,0.000000,2.481385,-553.459588,137.945534)"/>
    <path xmlns="http://www.w3.org/2000/svg" id="C735" d="m 392.38143,259.7658 v -51.07561 h -7.1658 v 51.07561 z m 0,0" style="fill:#1c1714;fill-opacity:1;stroke:none;stroke-width:0.35277775" ns3:connector-curvature="0" transform="matrix(2.481230,0.000000,0.000000,2.481230,-593.602584,137.981839)"/>
    <path xmlns="http://www.w3.org/2000/svg" id="C713" d="m 312.28436,245.61059 v -10.57782 h -13.08585 v 7.17131 h 5.73815 v 3.40651 c 0,5.37435 -1.79144,7.88238 -5.55625,7.88238 -3.94118,0 -6.45473,-2.68993 -7.5296,-7.70599 -0.71658,-3.94119 -1.07487,-8.42257 -1.07487,-12.72205 0,-6.09644 0.89848,-11.82908 2.33164,-14.33711 1.25677,-2.50803 3.22461,-3.7648 5.73264,-3.7648 3.58842,0 5.91454,2.33164 6.09644,5.73264 h 7.3477 c -0.35829,-7.52408 -5.91454,-12.89843 -13.26223,-12.89843 -5.91455,0 -11.1125,3.94119 -12.90396,9.31553 -1.79144,4.83967 -2.33164,10.03763 -2.33164,17.20343 0,6.63112 1.07487,13.80243 2.68994,17.56172 2.50802,5.73815 6.98941,8.78637 13.08033,8.78637 5.19796,0 9.32105,-2.68993 11.2944,-7.17131 1.07487,-2.14974 1.43316,-4.29948 1.43316,-7.88238 z m 0,0" style="fill:#1c1714;fill-opacity:1;stroke:none;stroke-width:0.35277775" ns3:connector-curvature="0" transform="matrix(2.496743,0.000000,0.000000,2.496743,-303.156044,134.341369)"/>
    <path xmlns="http://www.w3.org/2000/svg" id="C721" d="m 357.75407,259.7658 v -51.07561 h -7.3477 v 20.78633 h -13.97882 v -20.78633 h -7.34769 v 51.07561 h 7.34769 v -23.11797 h 13.97882 v 23.11797 z m 0,0" style="fill:#1c1714;fill-opacity:1;stroke:none;stroke-width:0.35277775" ns3:connector-curvature="0" transform="matrix(2.481385,0.000000,0.000000,2.481385,-314.636088,137.945534)"/>
    <path xmlns="http://www.w3.org/2000/svg" id="C87" d="m 1043.493,208.69019 h -7.1658 l -4.4813,27.24106 -4.8396,-27.24106 h -5.7327 l -5.0215,27.24106 -4.2994,-27.24106 h -7.1658 l 8.0643,51.07561 h 6.4491 l 4.8397,-26.70087 4.8396,26.70087 h 6.2728 z m 0,0" style="fill:#1c1714;fill-opacity:1;stroke:none;stroke-width:0.35277775" ns3:connector-curvature="0" transform="matrix(2.495304,0.000000,0.000000,2.495304,-1916.379272,134.685314)"/>
    <path xmlns="http://www.w3.org/2000/svg" id="C65" d="M 42.05393,259.7658 29.326367,208.69019 H 22.160568 L 9.4385239,259.7658 h 7.3476971 l 3.400996,-13.97882 h 10.936111 l 3.5829,13.97882 z M 29.326367,238.62118 h -7.347698 l 3.58841,-14.6954 z m 0,0" style="fill:#1c1714;fill-opacity:1;stroke:none;stroke-width:0.35277775" ns3:connector-curvature="0" transform="matrix(2.493047,0.000000,0.000000,2.493047,671.542313,135.213967)"/>
    <path xmlns="http://www.w3.org/2000/svg" id="C89" d="m 1131.2106,208.69019 h -7.8879 l -8.4224,18.4602 -8.5989,-18.4602 h -7.706 l 12.5401,27.95764 v 23.11797 h 7.3477 v -23.11797 z m 0,0" style="fill:#1c1714;fill-opacity:1;stroke:none;stroke-width:0.35277775" ns3:connector-curvature="0" transform="matrix(2.493063,0.000000,0.000000,2.493063,-1954.862801,135.210219)"/>
    </g>
  </g>
</svg>
