<svg width="20.0in" height="20.0in" viewBox="0 0 508.0 508.0">
  <g xmlns:ns0="http://www.inkscape.org/namespaces/inkscape" ns0:label="border" ns0:groupmode="layer">
    <ns1:path xmlns:ns1="http://www.w3.org/2000/svg" style="stroke:#ffd24f;stroke-width:1.3229166666404566;fill:#ffd24f" d="M38.099999999999994,0 a 38.099999999999994,38.099999999999994 0 0 0 -38.099999999999994,38.099999999999994 l 0,381.0 a 38.099999999999994,38.099999999999994 0 0 0 38.099999999999994,38.099999999999994 l 381.0,0 a 38.099999999999994,38.099999999999994 0 0 0 38.099999999999994-38.099999999999994 l 0,-381.0 a 38.099999999999994,38.099999999999994 0 0 0 -38.099999999999994-38.099999999999994 l -381.0,0 z" ns0:label="border_outside" transform="matrix(1.000000,0.000000,0.000000,1.000000,25.400000,25.400000)"/>
    <ns2:path xmlns:ns2="http://www.w3.org/2000/svg" style="stroke:#231f20;stroke-width:1.3229166666404566;fill:#231f20" d="M38.099999999999994,9.524999999999999 a 28.574999999999996,28.574999999999996 0 0 0 -28.574999999999996,28.574999999999996 l 0,381.0 a 28.574999999999996,28.574999999999996 0 0 0 28.574999999999996,28.574999999999996 l 381.0,0 a 28.574999999999996,28.574999999999996 0 0 0 28.574999999999996-28.574999999999996 l 0,-381.0 a 28.574999999999996,28.574999999999996 0 0 0 -28.574999999999996-28.574999999999996 l -381.0,0 z M38.099999999999994,25.4 l 381.0,0 a 12.699999999999996,12.699999999999996 0 0 1 12.699999999999996,12.699999999999996 l 0,381.0 a 12.699999999999996,12.699999999999996 0 0 1 -12.699999999999996,12.699999999999996 l -381.0,0 a 12.699999999999996,12.699999999999996 0 0 1 -12.699999999999996,-12.699999999999996 l 0,-381.0 a 12.699999999999996,12.699999999999996 0 0 1 12.699999999999996,-12.699999999999996 z" ns0:label="border" transform="matrix(1.000000,0.000000,0.000000,1.000000,25.400000,25.400000)"/>
  </g>
  <g xmlns:ns3="http://www.inkscape.org/namespaces/inkscape" ns3:label="messages" ns3:groupmode="layer">
    <g ns3:label="20" fill="#231f20"><path xmlns="http://www.w3.org/2000/svg" id="E50" d="m 2834.8669,56.54973 v -9.13915 h -30.1074 c 1.7914,-3.40651 3.2246,-5.37435 5.5562,-7.3477 3.0483,-2.68993 5.0161,-3.5829 11.8291,-5.55625 3.5829,-1.07487 5.9146,-2.33164 7.5241,-3.5829 3.4065,-2.86632 5.198,-6.81302 5.198,-11.1125 0,-9.32104 -7.706,-15.2300702 -19.7115,-15.2300702 -8.2462,0 -15.5939,2.68442 -21.5084,7.8823802 l 6.2728,6.98941 c 4.2995,-3.9412 9.1392,-5.55625 15.7703,-5.55625 6.4547,0 10.0376,2.14974 10.0376,5.91453 0,3.04822 -1.9733,4.83967 -7.706,6.44922 -9.321,2.51354 -15.7702,7.17131 -20.2516,14.6954 -2.8663,5.02157 -4.1231,9.50295 -4.1231,15.59388 z m 0,0" style="fill:#1c1714;fill-opacity:1;stroke:none;stroke-width:0.35277775" ns3:connector-curvature="0" transform="matrix(3.995488,0.000000,0.000000,3.995488,-11092.996673,68.376132)"/>
    <path xmlns="http://www.w3.org/2000/svg" id="E48" d="m 3256.2456,30.739075 c 0,-12.90395 -6.091,-26.1606802 -21.3266,-26.1606802 -15.0536,0 -21.5029,12.8984402 -21.5029,26.3425802 0,13.43863 6.2729,26.52448 21.5029,26.52448 15.412,0 21.3266,-13.62053 21.3266,-26.70638 z m -9.1392,0 c 0,10.57231 -4.6577,17.56172 -12.1874,17.56172 -7.7059,0 -12.3637,-6.26732 -12.3637,-17.56172 0,-7.52409 3.2246,-17.02153 12.3637,-17.02153 7.706,0 12.1874,6.44922 12.1874,17.20343 z m 0,0" style="fill:#1c1714;fill-opacity:1;stroke:none;stroke-width:0.35277775" ns3:connector-curvature="0" transform="matrix(3.987663,0.000000,0.000000,3.987663,-12545.796492,66.834895)"/>
    </g>
    <g ns3:label="MPH" fill="#231f20"><path xmlns="http://www.w3.org/2000/svg" id="E77" d="M 682.74199,56.549739 V 5.4741228 h -8.96276 L 658.72554,35.763409 643.85375,5.4741228 H 634.891 V 56.549739 h 8.96275 v -31.18225 l 14.87179,31.18225 15.05369,-31.18225 v 31.18225 z m 0,0" style="fill:#1c1714;fill-opacity:1;stroke:none;stroke-width:0.35277775" ns3:connector-curvature="0" transform="matrix(1.497693,0.000000,0.000000,1.497693,-810.847953,334.553648)"/>
    <path xmlns="http://www.w3.org/2000/svg" id="E80" d="m 836.96242,21.068004 c 0,-5.73815 -3.04822,-10.754211 -7.88789,-13.4441412 -2.86632,-1.60955 -5.19796,-2.14974 -9.13915,-2.14974 H 796.10083 V 56.549739 h 9.32105 v -20.06975 h 14.5135 c 3.94119,0 6.27283,-0.35829 9.13915,-1.97335 4.83967,-2.68993 7.88789,-8.06428 7.88789,-13.438635 z m -9.13915,0 c 0,3.759295 -3.04822,6.272835 -7.5296,6.272835 H 805.42188 V 14.613274 h 14.87179 c 4.48138,0 7.5296,2.50803 7.5296,6.45473 z m 0,0" style="fill:#1c1714;fill-opacity:1;stroke:none;stroke-width:0.35277775" ns3:connector-curvature="0" transform="matrix(1.511446,0.000000,0.000000,1.511446,-971.761458,334.127141)"/>
    <path xmlns="http://www.w3.org/2000/svg" id="E72" d="M 416.56777,56.54974 V 5.4741228 h -9.13915 V 25.18559 H 384.48704 V 5.4741228 h -9.13915 V 56.54974 h 9.13915 V 34.33025 l 22.94158,-0.1819 v 22.40139 z m 0,0" style="fill:#1c1714;fill-opacity:1;stroke:none;stroke-width:0.35277775" ns3:connector-curvature="0" transform="matrix(1.498309,0.000000,0.000000,1.498309,-256.171080,334.534544)"/>
    </g>
  </g>
</svg>
