<svg width="52.91168824543143in" height="52.91168824543143in" viewBox="0 0 1343.9568814339582 1343.9568814339582">
  <g xmlns:ns0="http://www.inkscape.org/namespaces/inkscape" ns0:label="border" ns0:groupmode="layer">
    <ns1:path xmlns:ns1="http://www.w3.org/2000/svg" style="stroke:#ffd24f;stroke-width:1.3229166666404566;fill:#ffd24f" d="M76.19999999999999,0 a 76.19999999999999,76.19999999999999 0 0 0 -76.19999999999999,76.19999999999999 l 0,762.0 a 76.19999999999999,76.19999999999999 0 0 0 76.19999999999999,76.19999999999999 l 762.0,0 a 76.19999999999999,76.19999999999999 0 0 0 76.19999999999999-76.19999999999999 l 0,-762.0 a 76.19999999999999,76.19999999999999 0 0 0 -76.19999999999999-76.19999999999999 l -762.0,0 z" ns0:label="border_outside" transform="matrix(0.707107,0.707107,-0.707107,0.707107,671.978441,25.400000)"/>
    <ns2:path xmlns:ns2="http://www.w3.org/2000/svg" style="stroke:#231f20;stroke-width:1.3229166666404566;fill:#231f20" d="M76.19999999999999,19.049999999999997 a 57.14999999999999,57.14999999999999 0 0 0 -57.14999999999999,57.14999999999999 l 0,762.0 a 57.14999999999999,57.14999999999999 0 0 0 57.14999999999999,57.14999999999999 l 762.0,0 a 57.14999999999999,57.14999999999999 0 0 0 57.14999999999999-57.14999999999999 l 0,-762.0 a 57.14999999999999,57.14999999999999 0 0 0 -57.14999999999999-57.14999999999999 l -762.0,0 z M76.19999999999999,44.449999999999996 l 762.0,0 a 31.749999999999993,31.749999999999993 0 0 1 31.749999999999993,31.749999999999993 l 0,762.0 a 31.749999999999993,31.749999999999993 0 0 1 -31.749999999999993,31.749999999999993 l -762.0,0 a 31.749999999999993,31.749999999999993 0 0 1 -31.749999999999993,-31.749999999999993 l 0,-762.0 a 31.749999999999993,31.749999999999993 0 0 1 31.749999999999993,-31.749999999999993 z" ns0:label="boder" transform="matrix(0.707107,0.707107,-0.707107,0.707107,671.978441,25.400000)"/>
  </g>
  <g xmlns:ns3="http://www.inkscape.org/namespaces/inkscape" ns3:label="messages" ns3:groupmode="layer">
    <g ns3:label="RAMP" fill="#231f20"><path xmlns="http://www.w3.org/2000/svg" id="D82" d="m 878.21338,158.16375 -8.96277,-23.83455 c 4.65777,-2.14974 7.8879,-7.5296 7.8879,-12.90394 0,-5.19796 -3.23013,-10.57231 -7.70599,-12.72205 -2.51354,-1.25677 -5.19796,-1.61506 -9.13915,-1.61506 h -16.85065 v 51.0756 h 8.06428 v -22.21949 h 9.67934 l 8.24618,22.21949 z m -9.13915,-36.73849 c 0,2.14973 -1.25678,4.29947 -3.23013,5.37434 -1.25125,0.71658 -2.14974,0.89848 -4.65776,0.89848 H 851.507 v -12.54566 h 9.67934 c 2.68993,0 3.40651,0.18191 4.65776,0.89849 1.97335,1.07487 3.23013,3.22461 3.23013,5.37435 z m 0,0" style="fill:#1c1714;fill-opacity:1;stroke:none;stroke-width:0.35277775" ns3:connector-curvature="0" transform="matrix(1.989154,0.000000,0.000000,1.989154,-1181.654018,128.765002)"/>
    <path xmlns="http://www.w3.org/2000/svg" id="D65" d="m 63.490123,158.16375 -17.56172,-51.07561 h -8.06428 l -17.56172,51.07561 h 8.59896 l 5.02157,-14.33711 h 15.94666 l 5.01606,14.33711 z m -16.48685,-22.58329 h -10.21402 l 5.19796,-14.3316 z m 0,0" style="fill:#1c1714;fill-opacity:1;stroke:none;stroke-width:0.35277775" ns3:connector-curvature="0" transform="matrix(2.000819,0.000000,0.000000,2.000819,532.754202,127.217930)"/>
    <path xmlns="http://www.w3.org/2000/svg" id="D77" d="m 639.85914,158.16375 v -51.0756 h -8.06427 l -11.82908,28.67421 -11.82908,-28.67421 h -8.06428 v 51.0756 h 8.06428 v -29.56718 l 11.82908,29.56718 11.82908,-29.56718 v 29.56718 z m 0,0" style="fill:#1c1714;fill-opacity:1;stroke:none;stroke-width:0.35277775" ns3:connector-curvature="0" transform="matrix(1.993098,0.000000,0.000000,1.993098,-520.976725,128.241925)"/>
    <path xmlns="http://www.w3.org/2000/svg" id="D80" d="m 781.86849,121.42525 c 0,-5.19796 -3.40651,-10.57231 -7.88789,-12.72205 -2.50803,-1.25677 -5.19796,-1.61506 -9.31554,-1.61506 h -17.56723 v 51.07561 h 8.06428 v -22.21949 h 9.50295 c 3.94119,0 6.98941,-0.72209 9.31554,-1.79697 4.48138,-1.96783 7.88789,-7.34769 7.88789,-12.72204 z m -8.24618,0 c 0,2.14973 -1.25126,4.48138 -3.04822,5.37435 -1.43316,0.71658 -2.32613,0.89847 -4.83416,0.89847 h -10.57782 v -12.54565 h 10.57782 c 2.50803,0 3.401,0.1819 4.83416,0.89848 1.79696,1.07487 3.04822,3.22461 3.04822,5.37435 z m 0,0" style="fill:#1c1714;fill-opacity:1;stroke:none;stroke-width:0.35277775" ns3:connector-curvature="0" transform="matrix(1.989154,0.000000,0.000000,1.989154,-707.383395,128.765012)"/>
    </g>
    <g ns3:label="METERED" fill="#231f20"><path xmlns="http://www.w3.org/2000/svg" id="D77x" d="m 639.85914,158.16375 v -51.0756 h -8.06427 l -11.82908,28.67421 -11.82908,-28.67421 h -8.06428 v 51.0756 h 8.06428 v -29.56718 l 11.82908,29.56718 11.82908,-29.56718 v 29.56718 z m 0,0" style="fill:#1c1714;fill-opacity:1;stroke:none;stroke-width:0.35277775" ns3:connector-curvature="0" transform="matrix(1.993098,0.000000,0.000000,1.993098,-808.657125,293.341925)"/>
    <path xmlns="http://www.w3.org/2000/svg" id="D69" d="m 250.44735,158.16375 v -8.24618 h -23.65816 v -13.97331 h 14.8773 v -8.24619 h -14.8773 v -12.54566 h 22.0431 v -8.06427 h -30.10738 v 51.07561 z m 0,0" style="fill:#1c1714;fill-opacity:1;stroke:none;stroke-width:0.35277775" ns3:connector-curvature="0" transform="matrix(1.986524,0.000000,0.000000,1.986524,56.526563,294.213818)"/>
    <path xmlns="http://www.w3.org/2000/svg" id="D84" d="m 972.94263,114.25945 v -7.1713 h -31.53921 v 7.1713 h 11.64705 v 43.9043 h 8.06375 v -43.9043 z m 0,0" style="fill:#1c1714;fill-opacity:1;stroke:none;stroke-width:0.35277775" ns3:connector-curvature="0" transform="matrix(1.998065,0.000000,0.000000,1.998065,-1318.810979,292.683172)"/>
    <path xmlns="http://www.w3.org/2000/svg" id="D69v" d="m 250.44735,158.16375 v -8.24618 h -23.65816 v -13.97331 h 14.8773 v -8.24619 h -14.8773 v -12.54566 h 22.0431 v -8.06427 h -30.10738 v 51.07561 z m 0,0" style="fill:#1c1714;fill-opacity:1;stroke:none;stroke-width:0.35277775" ns3:connector-curvature="0" transform="matrix(1.986524,0.000000,0.000000,1.986524,205.929363,294.213818)"/>
    <path xmlns="http://www.w3.org/2000/svg" id="D82u" d="m 878.21338,158.16375 -8.96277,-23.83455 c 4.65777,-2.14974 7.8879,-7.5296 7.8879,-12.90394 0,-5.19796 -3.23013,-10.57231 -7.70599,-12.72205 -2.51354,-1.25677 -5.19796,-1.61506 -9.13915,-1.61506 h -16.85065 v 51.0756 h 8.06428 v -22.21949 h 9.67934 l 8.24618,22.21949 z m -9.13915,-36.73849 c 0,2.14973 -1.25678,4.29947 -3.23013,5.37434 -1.25125,0.71658 -2.14974,0.89848 -4.65776,0.89848 H 851.507 v -12.54566 h 9.67934 c 2.68993,0 3.40651,0.18191 4.65776,0.89849 1.97335,1.07487 3.23013,3.22461 3.23013,5.37435 z m 0,0" style="fill:#1c1714;fill-opacity:1;stroke:none;stroke-width:0.35277775" ns3:connector-curvature="0" transform="matrix(1.989154,0.000000,0.000000,1.989154,-957.016418,293.865002)"/>
    <path xmlns="http://www.w3.org/2000/svg" id="D69q" d="m 250.44735,158.16375 v -8.24618 h -23.65816 v -13.97331 h 14.8773 v -8.24619 h -14.8773 v -12.54566 h 22.0431 v -8.06427 h -30.10738 v 51.07561 z m 0,0" style="fill:#1c1714;fill-opacity:1;stroke:none;stroke-width:0.35277775" ns3:connector-curvature="0" transform="matrix(1.986524,0.000000,0.000000,1.986524,372.654963,294.213818)"/>
    <path xmlns="http://www.w3.org/2000/svg" id="D68" d="m 203.79896,132.53775 c 0,-10.03763 -3.04822,-18.10192 -8.42257,-22.75968 -2.68993,-2.14974 -4.66328,-2.68993 -9.85573,-2.68993 H 169.0283 v 51.07561 h 15.59388 c 1.25677,0 2.33164,0 2.86632,0 2.68993,-0.1819 5.37986,-1.07487 7.3477,-2.86632 5.73815,-4.48138 8.96276,-12.54566 8.96276,-22.75968 z m -8.24618,0 c 0,6.80751 -1.60955,12.36376 -4.65777,15.41198 -1.43316,1.43316 -3.04822,1.96784 -5.73815,1.96784 h -8.06428 v -34.76516 h 9.14466 c 2.14974,0 3.94119,0.89849 5.19245,2.14974 2.51354,2.68993 4.12309,8.42257 4.12309,15.2356 z m 0,0" style="fill:#1c1714;fill-opacity:1;stroke:none;stroke-width:0.35277775" ns3:connector-curvature="0" transform="matrix(1.989154,0.000000,0.000000,1.989154,551.223323,293.865012)"/>
    </g>
    <g ns3:label="WHEN" fill="#231f20"><path xmlns="http://www.w3.org/2000/svg" id="D87" d="m 1124.359,107.08814 h -8.2407 l -3.9467,26.88277 -6.6311,-26.88277 h -7.8824 l -6.4547,26.88277 -3.9412,-26.88277 h -8.2406 l 7.524,51.07561 h 7.1714 l 7.8823,-32.79731 8.0643,32.79731 h 7.1713 z m 0,0" style="fill:#1c1714;fill-opacity:1;stroke:none;stroke-width:0.35277775" ns3:connector-curvature="0" transform="matrix(1.995589,0.000000,0.000000,1.995589,-1655.663503,458.111564)"/>
    <path xmlns="http://www.w3.org/2000/svg" id="D72" d="m 396.48883,158.16375 v -51.07561 h -8.06428 v 20.60994 h -18.6421 v -20.60994 h -8.06428 v 51.07561 h 8.06428 v -22.21949 h 18.6421 v 22.21949 z m 0,0" style="fill:#1c1714;fill-opacity:1;stroke:none;stroke-width:0.35277775" ns3:connector-curvature="0" transform="matrix(1.989154,0.000000,0.000000,1.989154,-116.178203,458.965012)"/>
    <path xmlns="http://www.w3.org/2000/svg" id="D69D" d="m 250.44735,158.16375 v -8.24618 h -23.65816 v -13.97331 h 14.8773 v -8.24619 h -14.8773 v -12.54566 h 22.0431 v -8.06427 h -30.10738 v 51.07561 z m 0,0" style="fill:#1c1714;fill-opacity:1;stroke:none;stroke-width:0.35277775" ns3:connector-curvature="0" transform="matrix(1.986524,0.000000,0.000000,1.986524,262.380863,459.313818)"/>
    <path xmlns="http://www.w3.org/2000/svg" id="D78" d="m 685.52356,158.16375 v -51.0756 h -8.06428 v 32.6154 l -18.64211,-32.6154 h -8.06428 v 51.0756 h 8.06428 v -34.58876 l 19.53508,34.58876 z m 0,0" style="fill:#1c1714;fill-opacity:1;stroke:none;stroke-width:0.35277775" ns3:connector-curvature="0" transform="matrix(1.989154,0.000000,0.000000,1.989154,-517.275182,458.965002)"/>
    </g>
    <g ns3:label="FLASHING" fill="#231f20"><path xmlns="http://www.w3.org/2000/svg" id="D70" d="m 298.6198,115.15241 v -8.06427 h -31.72244 v 51.07561 h 8.06428 v -22.21949 h 14.8773 v -8.24619 h -14.8773 v -12.54566 z m 0,0" style="fill:#1c1714;fill-opacity:1;stroke:none;stroke-width:0.35277775" ns3:connector-curvature="0" transform="matrix(1.986524,0.000000,0.000000,1.986524,-169.826765,624.413818)"/>
    <path xmlns="http://www.w3.org/2000/svg" id="D76" d="m 587.65452,158.16375 v -7.5296 h -23.65815 v -43.546 h -8.06428 v 51.0756 z m 0,0" style="fill:#1c1714;fill-opacity:1;stroke:none;stroke-width:0.35277775" ns3:connector-curvature="0" transform="matrix(1.986525,0.000000,0.000000,1.986525,-665.744355,624.413675)"/>
    <path xmlns="http://www.w3.org/2000/svg" id="D65q" d="m 63.490123,158.16375 -17.56172,-51.07561 h -8.06428 l -17.56172,51.07561 h 8.59896 l 5.02157,-14.33711 h 15.94666 l 5.01606,14.33711 z m -16.48685,-22.58329 h -10.21402 l 5.19796,-14.3316 z m 0,0" style="fill:#1c1714;fill-opacity:1;stroke:none;stroke-width:0.35277775" ns3:connector-curvature="0" transform="matrix(2.000819,0.000000,0.000000,2.000819,467.120602,622.517930)"/>
    <path xmlns="http://www.w3.org/2000/svg" id="D83" d="m 926.38311,143.46835 c 0,-20.06974 -24.01094,-13.79692 -24.72751,-23.29987 -0.3583,-4.65776 4.12309,-6.09092 7.88237,-5.90903 5.73816,0.17639 7.5296,4.47587 7.5296,4.47587 l 7.1658,-2.14974 c -2.50802,-6.27282 -7.3477,-10.3904 -14.51349,-10.3904 -9.13916,0 -15.95218,3.75929 -15.95218,13.79691 0,8.42257 6.81302,11.4708 9.85573,12.72205 6.63112,2.68993 14.51901,3.7648 14.51901,10.57782 0,4.29948 -3.22461,7.52409 -7.88789,7.52409 -4.83415,0 -8.78086,-2.68993 -10.9306,-7.52409 l -7.70599,2.86633 c 3.40651,7.70599 9.85573,12.90394 18.63659,12.90394 4.30499,0 8.24618,-1.43867 11.1125,-3.9467 3.22461,-2.86632 5.01606,-6.98941 5.01606,-11.64718 z m 0,0" style="fill:#1c1714;fill-opacity:1;stroke:none;stroke-width:0.35277775" ns3:connector-curvature="0" transform="matrix(1.989469,0.000000,0.000000,1.989469,-1171.565445,624.017744)"/>
    <path xmlns="http://www.w3.org/2000/svg" id="D72J" d="m 396.48883,158.16375 v -51.07561 h -8.06428 v 20.60994 h -18.6421 v -20.60994 h -8.06428 v 51.07561 h 8.06428 v -22.21949 h 18.6421 v 22.21949 z m 0,0" style="fill:#1c1714;fill-opacity:1;stroke:none;stroke-width:0.35277775" ns3:connector-curvature="0" transform="matrix(1.989154,0.000000,0.000000,1.989154,-30.796103,624.065012)"/>
    <path xmlns="http://www.w3.org/2000/svg" id="D73" d="m 431.39902,158.16375 v -51.07561 h -8.24618 v 51.07561 z m 0,0" style="fill:#1c1714;fill-opacity:1;stroke:none;stroke-width:0.35277775" ns3:connector-curvature="0" transform="matrix(1.971337,0.000000,0.000000,1.971337,-51.911609,626.428008)"/>
    <path xmlns="http://www.w3.org/2000/svg" id="D782" d="m 685.52356,158.16375 v -51.0756 h -8.06428 v 32.6154 l -18.64211,-32.6154 h -8.06428 v 51.0756 h 8.06428 v -34.58876 l 19.53508,34.58876 z m 0,0" style="fill:#1c1714;fill-opacity:1;stroke:none;stroke-width:0.35277775" ns3:connector-curvature="0" transform="matrix(1.989154,0.000000,0.000000,1.989154,-471.542482,624.065002)"/>
    <path xmlns="http://www.w3.org/2000/svg" id="D71" d="m 348.31635,142.92816 v -10.21402 h -17.38533 v 8.06428 h 9.32105 v 2.14974 c 0,4.66328 -3.7648,7.88789 -8.96276,7.88789 -3.04822,0 -5.37435,-1.25677 -6.98941,-4.12309 -1.61506,-3.22461 -2.50803,-8.59896 -2.50803,-13.97882 0,-4.29948 0.71658,-8.95725 1.97335,-12.00548 1.79145,-4.48137 4.47587,-6.27283 8.59896,-6.27283 3.94118,0 6.09644,1.61507 8.24618,6.09094 l 7.70599,-3.04271 c -3.40651,-8.06428 -8.06428,-11.28889 -15.95217,-11.28889 -5.73264,0 -10.03763,1.96784 -13.08034,5.73264 -3.40651,4.48137 -5.73815,12.54566 -5.73815,20.78633 0,6.27283 1.25677,12.54566 3.40651,17.02704 3.04822,6.44922 7.5296,9.32105 15.23559,9.32105 9.31554,0 16.12856,-6.81302 16.12856,-16.13407 z m 0,0" style="fill:#1c1714;fill-opacity:1;stroke:none;stroke-width:0.35277775" ns3:connector-curvature="0" transform="matrix(1.989154,0.000000,0.000000,1.989154,290.730779,624.059532)"/>
    </g>
  </g>
</svg>
