<svg width="44.42640687119285in" height="44.42640687119285in" viewBox="0 0 1128.4307345282984 1128.4307345282984">
  <g xmlns:ns0="http://www.inkscape.org/namespaces/inkscape" ns0:label="border" ns0:groupmode="layer">
    <ns1:path xmlns:ns1="http://www.w3.org/2000/svg" style="stroke:#ffd24f;stroke-width:1.3229166666404566;fill:#ffd24f" d="M47.625,0 a 47.625,47.625 0 0 0 -47.625,47.625 l 0,666.75 a 47.625,47.625 0 0 0 47.625,47.625 l 666.75,0 a 47.625,47.625 0 0 0 47.625-47.625 l 0,-666.75 a 47.625,47.625 0 0 0 -47.625-47.625 l -666.75,0 z" ns0:label="border_outside" transform="matrix(0.707107,0.707107,-0.707107,0.707107,564.215367,25.400000)"/>
    <ns2:path xmlns:ns2="http://www.w3.org/2000/svg" style="stroke:#231f20;stroke-width:1.3229166666404566;fill:#231f20" d="M47.625,12.7 a 34.925,34.925 0 0 0 -34.925,34.925 l 0,666.75 a 34.925,34.925 0 0 0 34.925,34.925 l 666.75,0 a 34.925,34.925 0 0 0 34.925-34.925 l 0,-666.75 a 34.925,34.925 0 0 0 -34.925-34.925 l -666.75,0 z M47.625,31.749999999999996 l 666.75,0 a 15.875,15.875 0 0 1 15.875,15.875 l 0,666.75 a 15.875,15.875 0 0 1 -15.875,15.875 l -666.75,0 a 15.875,15.875 0 0 1 -15.875,-15.875 l 0,-666.75 a 15.875,15.875 0 0 1 15.875,-15.875 z" ns0:label="boder" transform="matrix(0.707107,0.707107,-0.707107,0.707107,564.215367,25.400000)"/>
  </g>
  <g xmlns:ns3="http://www.inkscape.org/namespaces/inkscape" ns3:label="messages" ns3:groupmode="layer">
    <g ns3:label="HILL" fill="#231f20"><path xmlns="http://www.w3.org/2000/svg" id="D72" d="m 396.48883,158.16375 v -51.07561 h -8.06428 v 20.60994 h -18.6421 v -20.60994 h -8.06428 v 51.07561 h 8.06428 v -22.21949 h 18.6421 v 22.21949 z m 0,0" style="fill:#1c1714;fill-opacity:1;stroke:none;stroke-width:0.35277775" ns3:connector-curvature="0" transform="matrix(2.486443,0.000000,0.000000,2.486443,-507.340627,8.388515)"/>
    <path xmlns="http://www.w3.org/2000/svg" id="D73" d="m 431.39902,158.16375 v -51.07561 h -8.24618 v 51.07561 z m 0,0" style="fill:#1c1714;fill-opacity:1;stroke:none;stroke-width:0.35277775" ns3:connector-curvature="0" transform="matrix(2.464171,0.000000,0.000000,2.464171,-533.734713,11.342360)"/>
    <path xmlns="http://www.w3.org/2000/svg" id="D76" d="m 587.65452,158.16375 v -7.5296 h -23.65815 v -43.546 h -8.06428 v 51.0756 z m 0,0" style="fill:#1c1714;fill-opacity:1;stroke:none;stroke-width:0.35277775" ns3:connector-curvature="0" transform="matrix(2.483156,0.000000,0.000000,2.483156,-820.679859,8.824444)"/>
    <path xmlns="http://www.w3.org/2000/svg" id="D760" d="m 587.65452,158.16375 v -7.5296 h -23.65815 v -43.546 h -8.06428 v 51.0756 z m 0,0" style="fill:#1c1714;fill-opacity:1;stroke:none;stroke-width:0.35277775" ns3:connector-curvature="0" transform="matrix(2.483156,0.000000,0.000000,2.483156,-722.858109,8.824444)"/>
    </g>
    <g ns3:label="BLOCKS" fill="#231f20"><path xmlns="http://www.w3.org/2000/svg" id="D66" d="m 107.45405,143.82664 c 0,-5.55625 -3.04822,-9.85573 -8.422556,-12.36376 4.834146,-2.68993 7.165786,-6.45473 7.165786,-11.47079 0,-7.3477 -6.09092,-12.90395 -14.155203,-12.90395 h -19.35868 v 51.07561 h 19.35868 c 2.32613,0 5.374357,-0.54019 7.165807,-1.25677 4.839656,-1.96784 8.246166,-7.52409 8.246166,-13.08034 z m -9.321036,-23.47626 c 0,2.33164 -1.07487,4.48138 -2.866327,5.91454 -1.43316,1.07487 -2.50803,1.43316 -4.83967,1.43316 h -9.67934 v -12.54566 h 11.82908 c 3.5829,0 5.556257,1.79145 5.556257,5.19796 z m 1.07487,23.65816 c 0,3.94119 -2.14974,5.90903 -6.272837,5.90903 h -12.18737 v -13.97331 h 10.21953 c 1.79145,0 2.32613,0 3.401,0.35829 2.871837,1.07487 4.839677,4.29948 4.839677,7.70599 z m 0,0" style="fill:#1c1714;fill-opacity:1;stroke:none;stroke-width:0.35277775" ns3:connector-curvature="0" transform="matrix(2.486443,0.000000,0.000000,2.486443,72.754995,231.908515)"/>
    <path xmlns="http://www.w3.org/2000/svg" id="D76X" d="m 587.65452,158.16375 v -7.5296 h -23.65815 v -43.546 h -8.06428 v 51.0756 z m 0,0" style="fill:#1c1714;fill-opacity:1;stroke:none;stroke-width:0.35277775" ns3:connector-curvature="0" transform="matrix(2.483156,0.000000,0.000000,2.483156,-1018.942734,232.344444)"/>
    <path xmlns="http://www.w3.org/2000/svg" id="D79" d="m 734.41263,132.71413 c 0,-6.44921 -1.25677,-12.90394 -3.40651,-17.37981 -3.22461,-6.27283 -7.70599,-9.13915 -14.1552,-9.13915 -5.91455,0 -10.03764,1.79145 -13.08586,5.73264 -3.40651,4.83967 -5.55624,12.36375 -5.55624,20.78632 0,6.09645 1.43315,12.90396 3.5884,17.20344 3.04271,6.27283 7.5241,9.14466 14.6954,9.14466 5.37435,0 9.49745,-1.79696 12.36376,-5.73815 3.5829,-4.48138 5.55625,-12.54566 5.55625,-20.60995 z m -8.06428,0 c 0,3.94671 -0.89848,8.96277 -1.97335,11.6527 -1.79145,4.47587 -4.12309,6.44922 -7.88238,6.44922 -3.23012,0 -5.37986,-1.25677 -6.98941,-3.94119 -1.97335,-3.22461 -3.04821,-8.78086 -3.04821,-14.16073 0,-4.29947 0.71658,-8.95724 1.97335,-12.00546 1.79144,-4.48138 4.29948,-6.44922 8.24066,-6.27283 3.04823,0.1819 5.01606,1.25677 6.63112,3.94119 1.97335,3.40651 3.04822,8.60447 3.04822,14.3371 z m 0,0" style="fill:#1c1714;fill-opacity:1;stroke:none;stroke-width:0.35277775" ns3:connector-curvature="0" transform="matrix(2.492376,0.000000,0.000000,2.492376,-1283.393792,231.114778)"/>
    <path xmlns="http://www.w3.org/2000/svg" id="D67" d="m 155.62651,147.76783 -7.70599,-2.86632 c -1.97335,4.12309 -4.48138,5.91454 -7.88789,5.91454 -3.5829,0 -5.91454,-1.25677 -7.70599,-3.94119 -1.97335,-3.22461 -3.22461,-8.78086 -3.22461,-14.33711 0,-4.30499 0.71658,-8.78086 1.97335,-11.82908 1.79145,-4.48138 4.47587,-6.27283 8.59896,-6.27283 3.94119,0 5.55625,1.07487 8.42257,5.37435 l 7.5296,-3.22461 c -3.40651,-7.16579 -8.24619,-10.39041 -15.95217,-10.39041 -5.73264,0 -10.03763,1.96784 -13.08034,5.73264 -3.58841,4.48138 -5.73815,12.54566 -5.73815,20.60994 0,6.44922 1.43316,12.90395 3.7648,17.37982 3.22461,6.27283 8.06428,9.14466 15.59388,9.14466 7.3477,0 12.36376,-3.7648 15.41198,-11.2944 z m 0,0" style="fill:#1c1714;fill-opacity:1;stroke:none;stroke-width:0.35277775" ns3:connector-curvature="0" transform="matrix(2.486443,0.000000,0.000000,2.486443,271.937428,231.901665)"/>
    <path xmlns="http://www.w3.org/2000/svg" id="D75" d="M 541.45267,158.16375 524.60753,126.9815 540.3778,107.08814 h -10.39041 l -16.13407,20.25165 v -20.25165 h -8.06428 v 51.07561 h 8.06428 v -17.56172 l 5.37986,-6.63112 12.90395,24.19284 z m 0,0" style="fill:#1c1714;fill-opacity:1;stroke:none;stroke-width:0.35277775" ns3:connector-curvature="0" transform="matrix(2.494516,0.000000,0.000000,2.494516,-574.864983,230.837825)"/>
    <path xmlns="http://www.w3.org/2000/svg" id="D83" d="m 926.38311,143.46835 c 0,-20.06974 -24.01094,-13.79692 -24.72751,-23.29987 -0.3583,-4.65776 4.12309,-6.09092 7.88237,-5.90903 5.73816,0.17639 7.5296,4.47587 7.5296,4.47587 l 7.1658,-2.14974 c -2.50802,-6.27282 -7.3477,-10.3904 -14.51349,-10.3904 -9.13916,0 -15.95218,3.75929 -15.95218,13.79691 0,8.42257 6.81302,11.4708 9.85573,12.72205 6.63112,2.68993 14.51901,3.7648 14.51901,10.57782 0,4.29948 -3.22461,7.52409 -7.88789,7.52409 -4.83415,0 -8.78086,-2.68993 -10.9306,-7.52409 l -7.70599,2.86633 c 3.40651,7.70599 9.85573,12.90394 18.63659,12.90394 4.30499,0 8.24618,-1.43867 11.1125,-3.9467 3.22461,-2.86632 5.01606,-6.98941 5.01606,-11.64718 z m 0,0" style="fill:#1c1714;fill-opacity:1;stroke:none;stroke-width:0.35277775" ns3:connector-curvature="0" transform="matrix(2.486837,0.000000,0.000000,2.486837,-1428.811171,231.849396)"/>
    </g>
    <g ns3:label="VIEW" fill="#231f20"><path xmlns="http://www.w3.org/2000/svg" id="D86" d="m 1072.8712,107.08814 h -8.599 l -10.7542,34.04856 -10.9306,-34.04856 h -8.4225 l 16.1285,51.07561 h 6.2729 z m 0,0" style="fill:#1c1714;fill-opacity:1;stroke:none;stroke-width:0.35277775" ns3:connector-curvature="0" transform="matrix(2.495291,0.000000,0.000000,2.495291,-2200.556366,454.255040)"/>
    <path xmlns="http://www.w3.org/2000/svg" id="D73E" d="m 431.39902,158.16375 v -51.07561 h -8.24618 v 51.07561 z m 0,0" style="fill:#1c1714;fill-opacity:1;stroke:none;stroke-width:0.35277775" ns3:connector-curvature="0" transform="matrix(2.464171,0.000000,0.000000,2.464171,-547.101463,458.382360)"/>
    <path xmlns="http://www.w3.org/2000/svg" id="D69" d="m 250.44735,158.16375 v -8.24618 h -23.65816 v -13.97331 h 14.8773 v -8.24619 h -14.8773 v -12.54566 h 22.0431 v -8.06427 h -30.10738 v 51.07561 z m 0,0" style="fill:#1c1714;fill-opacity:1;stroke:none;stroke-width:0.35277775" ns3:connector-curvature="0" transform="matrix(2.483155,0.000000,0.000000,2.483155,3.291646,455.864589)"/>
    <path xmlns="http://www.w3.org/2000/svg" id="D87" d="m 1124.359,107.08814 h -8.2407 l -3.9467,26.88277 -6.6311,-26.88277 h -7.8824 l -6.4547,26.88277 -3.9412,-26.88277 h -8.2406 l 7.524,51.07561 h 7.1714 l 7.8823,-32.79731 8.0643,32.79731 h 7.1713 z m 0,0" style="fill:#1c1714;fill-opacity:1;stroke:none;stroke-width:0.35277775" ns3:connector-curvature="0" transform="matrix(2.494486,0.000000,0.000000,2.494486,-2056.253037,454.361804)"/>
    </g>
  </g>
</svg>
