<svg width="38.0in" height="32.0in" viewBox="0 0 965.1999999999999 812.8">
  <g xmlns:ns0="http://www.inkscape.org/namespaces/inkscape" ns0:label="border" ns0:groupmode="layer">
    <ns1:path xmlns:ns1="http://www.w3.org/2000/svg" style="stroke:#ffd24f;stroke-width:1.3229166666404566;fill:#ffd24f" d="M47.625,0 a 47.625,47.625 0 0 0 -47.625,47.625 l 0,666.75 a 47.625,47.625 0 0 0 47.625,47.625 l 819.15,0 a 47.625,47.625 0 0 0 47.625-47.625 l 0,-666.75 a 47.625,47.625 0 0 0 -47.625-47.625 l -819.15,0 z" ns0:label="border_outside" transform="matrix(1.000000,0.000000,0.000000,1.000000,25.400000,25.400000)"/>
    <ns2:path xmlns:ns2="http://www.w3.org/2000/svg" style="stroke:#231f20;stroke-width:1.3229166666404566;fill:#231f20" d="M47.625,12.7 a 34.925,34.925 0 0 0 -34.925,34.925 l 0,666.75 a 34.925,34.925 0 0 0 34.925,34.925 l 819.15,0 a 34.925,34.925 0 0 0 34.925-34.925 l 0,-666.75 a 34.925,34.925 0 0 0 -34.925-34.925 l -819.15,0 z M47.625,31.749999999999996 l 819.15,0 a 15.875,15.875 0 0 1 15.875,15.875 l 0,666.75 a 15.875,15.875 0 0 1 -15.875,15.875 l -819.15,0 a 15.875,15.875 0 0 1 -15.875,-15.875 l 0,-666.75 a 15.875,15.875 0 0 1 15.875,-15.875 z" ns0:label="border" transform="matrix(1.000000,0.000000,0.000000,1.000000,25.400000,25.400000)"/>
  </g>
  <g xmlns:ns3="http://www.inkscape.org/namespaces/inkscape" ns3:label="messages" ns3:groupmode="layer">
    <g ns3:label="WHEN" fill="#231f20"><path xmlns="http://www.w3.org/2000/svg" id="D87" d="m 1124.359,107.08814 h -8.2407 l -3.9467,26.88277 -6.6311,-26.88277 h -7.8824 l -6.4547,26.88277 -3.9412,-26.88277 h -8.2406 l 7.524,51.07561 h 7.1714 l 7.8823,-32.79731 8.0643,32.79731 h 7.1713 z m 0,0" style="fill:#1c1714;fill-opacity:1;stroke:none;stroke-width:0.35277775" ns3:connector-curvature="0" transform="matrix(3.492280,0.000000,0.000000,3.492280,-3590.772576,-202.816935)"/>
    <path xmlns="http://www.w3.org/2000/svg" id="D72" d="m 396.48883,158.16375 v -51.07561 h -8.06428 v 20.60994 h -18.6421 v -20.60994 h -8.06428 v 51.07561 h 8.06428 v -22.21949 h 18.6421 v 22.21949 z m 0,0" style="fill:#1c1714;fill-opacity:1;stroke:none;stroke-width:0.35277775" ns3:connector-curvature="0" transform="matrix(3.481020,0.000000,0.000000,3.481020,-896.674316,-201.323567)"/>
    <path xmlns="http://www.w3.org/2000/svg" id="D69" d="m 250.44735,158.16375 v -8.24618 h -23.65816 v -13.97331 h 14.8773 v -8.24619 h -14.8773 v -12.54566 h 22.0431 v -8.06427 h -30.10738 v 51.07561 z m 0,0" style="fill:#1c1714;fill-opacity:1;stroke:none;stroke-width:0.35277775" ns3:connector-curvature="0" transform="matrix(3.476418,0.000000,0.000000,3.476418,-234.195995,-200.713222)"/>
    <path xmlns="http://www.w3.org/2000/svg" id="D78" d="m 685.52356,158.16375 v -51.0756 h -8.06428 v 32.6154 l -18.64211,-32.6154 h -8.06428 v 51.0756 h 8.06428 v -34.58876 l 19.53508,34.58876 z m 0,0" style="fill:#1c1714;fill-opacity:1;stroke:none;stroke-width:0.35277775" ns3:connector-curvature="0" transform="matrix(3.481019,0.000000,0.000000,3.481019,-1598.593506,-201.323452)"/>
    </g>
    <g ns3:label="WET" fill="#231f20"><path xmlns="http://www.w3.org/2000/svg" id="D87t" d="m 1124.359,107.08814 h -8.2407 l -3.9467,26.88277 -6.6311,-26.88277 h -7.8824 l -6.4547,26.88277 -3.9412,-26.88277 h -8.2406 l 7.524,51.07561 h 7.1714 l 7.8823,-32.79731 8.0643,32.79731 h 7.1713 z m 0,0" style="fill:#1c1714;fill-opacity:1;stroke:none;stroke-width:0.35277775" ns3:connector-curvature="0" transform="matrix(3.492280,0.000000,0.000000,3.492280,-3495.538451,89.283065)"/>
    <path xmlns="http://www.w3.org/2000/svg" id="D69d" d="m 250.44735,158.16375 v -8.24618 h -23.65816 v -13.97331 h 14.8773 v -8.24619 h -14.8773 v -12.54566 h 22.0431 v -8.06427 h -30.10738 v 51.07561 z m 0,0" style="fill:#1c1714;fill-opacity:1;stroke:none;stroke-width:0.35277775" ns3:connector-curvature="0" transform="matrix(3.476418,0.000000,0.000000,3.476418,-302.671220,91.386778)"/>
    <path xmlns="http://www.w3.org/2000/svg" id="D84" d="m 972.94263,114.25945 v -7.1713 h -31.53921 v 7.1713 h 11.64705 v 43.9043 h 8.06375 v -43.9043 z m 0,0" style="fill:#1c1714;fill-opacity:1;stroke:none;stroke-width:0.35277775" ns3:connector-curvature="0" transform="matrix(3.496614,0.000000,0.000000,3.496614,-2709.511925,88.708246)"/>
    </g>
  </g>
</svg>
